<svg width="24" height="24" viewBox="0 0 24 24" fill="none" xmlns="http://www.w3.org/2000/svg">
<path d="M9 5.75C10.2439 5.75 11.25 6.75614 11.25 8C11.25 9.24386 10.2439 10.25 9 10.25C7.75614 10.25 6.75 9.24386 6.75 8C6.75 6.75614 7.75614 5.75 9 5.75ZM9 6.25C8.03386 6.25 7.25 7.03386 7.25 8C7.25 8.96614 8.03386 9.75 9 9.75C9.96614 9.75 10.75 8.96614 10.75 8C10.75 7.03386 9.96614 6.25 9 6.25Z" fill="#5F7698" stroke="#5F7698"/>
<path d="M9 1.75H13C13.1339 1.75 13.25 1.86614 13.25 2C13.25 2.13386 13.1339 2.25 13 2.25H9C6.65972 2.25 4.92459 2.66134 3.79297 3.79297C2.66134 4.92459 2.25 6.65972 2.25 9V15C2.25 17.3403 2.66134 19.0754 3.79297 20.207C4.92459 21.3387 6.65972 21.75 9 21.75H15C17.3403 21.75 19.0754 21.3387 20.207 20.207C21.3387 19.0754 21.75 17.3403 21.75 15V10C21.75 9.86614 21.8661 9.75 22 9.75C22.1339 9.75 22.25 9.86614 22.25 10V15C22.25 17.6576 21.6802 19.435 20.5576 20.5576C19.435 21.6802 17.6576 22.25 15 22.25H9C6.3424 22.25 4.565 21.6802 3.44238 20.5576C2.31976 19.435 1.75 17.6576 1.75 15V9C1.75 6.3424 2.31976 4.565 3.44238 3.44238C4.565 2.31976 6.3424 1.75 9 1.75Z" fill="#5F7698" stroke="#5F7698"/>
<path d="M21.25 5.75H15.75C15.34 5.75 15 5.41 15 5C15 4.59 15.34 4.25 15.75 4.25H21.25C21.66 4.25 22 4.59 22 5C22 5.41 21.66 5.75 21.25 5.75Z" fill="#5F7698"/>
<path d="M18.5 8.5C18.09 8.5 17.75 8.16 17.75 7.75V2.25C17.75 1.84 18.09 1.5 18.5 1.5C18.91 1.5 19.25 1.84 19.25 2.25V7.75C19.25 8.16 18.91 8.5 18.5 8.5Z" fill="#5F7698"/>
<path d="M2.67029 19.7001C2.43029 19.7001 2.19029 19.5801 2.05029 19.3701C1.82029 19.0301 1.91029 18.5601 2.25029 18.3301L7.18029 15.0201C8.26029 14.3001 9.75029 14.3801 10.7303 15.2101L11.0603 15.5001C11.5603 15.9301 12.4103 15.9301 12.9003 15.5001L17.0603 11.9301C18.1303 11.0201 19.7903 11.0201 20.8603 11.9301L22.4903 13.3301C22.8003 13.6001 22.8403 14.0701 22.5703 14.3901C22.3003 14.7001 21.8303 14.7401 21.5103 14.4701L19.8803 13.0701C19.3803 12.6401 18.5303 12.6401 18.0403 13.0701L13.8803 16.6401C12.8203 17.5501 11.1503 17.5501 10.0803 16.6401L9.75029 16.3501C9.29029 15.9601 8.53029 15.9201 8.02029 16.2701L3.10029 19.5801C2.96029 19.6601 2.81029 19.7001 2.67029 19.7001Z" fill="#5F7698"/>
</svg>
