<svg width="18" height="18" viewBox="0 0 18 18" fill="none" xmlns="http://www.w3.org/2000/svg">
<path d="M9.00039 17.4375C12.6848 17.4375 15.8066 15.1031 16.9598 11.8125H1.04102C2.19414 15.1031 5.31602 17.4375 9.00039 17.4375Z" fill="#3E4347"/>
<path d="M9.00039 0.5625C5.31602 0.5625 2.19414 2.925 1.04102 6.1875H16.9598C15.8066 2.925 12.6848 0.5625 9.00039 0.5625Z" fill="#078C50"/>
<path d="M16.9594 11.8125C17.2687 10.9406 17.4375 9.98438 17.4375 9C17.4375 8.01562 17.2687 7.05937 16.9594 6.1875H1.04063C0.73125 7.05937 0.5625 8.01562 0.5625 9C0.5625 9.98438 0.73125 10.9406 1.04063 11.8125H16.9594Z" fill="#F9F9F9"/>
<path d="M3 7L3.44903 8.38197H4.90211L3.72654 9.23607L4.17557 10.618L3 9.76393L1.82443 10.618L2.27346 9.23607L1.09789 8.38197H2.55097L3 7Z" fill="#DA121C"/>
<path d="M9 7L9.44903 8.38197H10.9021L9.72654 9.23607L10.1756 10.618L9 9.76393L7.82443 10.618L8.27346 9.23607L7.09789 8.38197H8.55097L9 7Z" fill="#DA121C"/>
<path d="M15 7L15.449 8.38197H16.9021L15.7265 9.23607L16.1756 10.618L15 9.76393L13.8244 10.618L14.2735 9.23607L13.0979 8.38197H14.551L15 7Z" fill="#DA121C"/>
</svg>
