<svg width="18" height="18" viewBox="0 0 18 18" fill="none" xmlns="http://www.w3.org/2000/svg">
<path d="M9.00039 17.4375C12.6848 17.4375 15.8066 15.1031 16.9598 11.8125H1.04102C2.19414 15.1031 5.31602 17.4375 9.00039 17.4375Z" fill="#3E4347"/>
<path d="M9.00039 0.5625C5.31602 0.5625 2.19414 2.925 1.04102 6.1875H16.9598C15.8066 2.925 12.6848 0.5625 9.00039 0.5625Z" fill="#ED4C5C"/>
<path d="M16.9594 11.8125C17.2687 10.9406 17.4375 9.98438 17.4375 9C17.4375 8.01562 17.2687 7.05937 16.9594 6.1875H1.04063C0.73125 7.05937 0.5625 8.01562 0.5625 9C0.5625 9.98438 0.73125 10.9406 1.04063 11.8125H16.9594Z" fill="#F9F9F9"/>
<path d="M5.90625 9.9L7.11562 10.6875L6.66563 9.39375L7.875 8.57812H6.38438L5.90625 7.3125L5.45625 8.57812H3.9375L5.14687 9.39375L4.69688 10.6875L5.90625 9.9ZM12.0938 9.9L13.3031 10.6875L12.8531 9.39375L14.0625 8.57812H12.5719L12.0938 7.3125L11.6438 8.57812H10.125L11.3344 9.39375L10.8844 10.6875L12.0938 9.9Z" fill="#75A843"/>
</svg>
