<svg width="375" height="257" viewBox="0 0 375 257" fill="none" xmlns="http://www.w3.org/2000/svg">
<g clip-path="url(#clip0_7262_6085)">
<rect x="92.9922" y="-35.3619" width="51.1885" height="51.1885" rx="5.64839" stroke="#F0F0F0" stroke-width="0.529536"/>
<rect x="144.181" y="-35.3619" width="51.1885" height="51.1885" rx="5.64839" stroke="#F0F0F0" stroke-width="0.529536"/>
<rect x="195.369" y="-35.3619" width="51.1885" height="51.1885" rx="5.64839" stroke="#F0F0F0" stroke-width="0.529536"/>
<rect x="246.558" y="-35.3619" width="51.1885" height="51.1885" rx="5.64839" stroke="#F0F0F0" stroke-width="0.529536"/>
<rect x="297.746" y="-35.3619" width="51.1885" height="51.1885" rx="5.64839" stroke="#F0F0F0" stroke-width="0.529536"/>
<rect x="348.935" y="-35.3619" width="51.1885" height="51.1885" rx="5.64839" stroke="#F0F0F0" stroke-width="0.529536"/>
<rect x="92.9922" y="15.8264" width="51.1885" height="51.1885" rx="5.64839" stroke="#F0F0F0" stroke-width="0.529536"/>
<rect x="144.181" y="15.8264" width="51.1885" height="51.1885" rx="5.64839" stroke="#F0F0F0" stroke-width="0.529536"/>
<rect x="195.369" y="15.8264" width="51.1885" height="51.1885" rx="5.64839" stroke="#F0F0F0" stroke-width="0.529536"/>
<rect x="246.558" y="15.8264" width="51.1885" height="51.1885" rx="5.64839" stroke="#F0F0F0" stroke-width="0.529536"/>
<rect x="297.746" y="15.8264" width="51.1885" height="51.1885" rx="5.64839" stroke="#F0F0F0" stroke-width="0.529536"/>
<rect x="348.935" y="15.8264" width="51.1885" height="51.1885" rx="5.64839" stroke="#F0F0F0" stroke-width="0.529536"/>
<rect x="92.9922" y="67.0151" width="51.1885" height="51.1885" rx="5.64839" stroke="#F0F0F0" stroke-width="0.529536"/>
<rect x="144.181" y="67.0151" width="51.1885" height="51.1885" rx="5.64839" stroke="#F0F0F0" stroke-width="0.529536"/>
<rect x="195.369" y="67.0151" width="51.1885" height="51.1885" rx="5.64839" stroke="#F0F0F0" stroke-width="0.529536"/>
<rect x="246.558" y="67.0151" width="51.1885" height="51.1885" rx="5.64839" stroke="#F0F0F0" stroke-width="0.529536"/>
<rect x="297.746" y="67.0151" width="51.1885" height="51.1885" rx="5.64839" stroke="#F0F0F0" stroke-width="0.529536"/>
<rect x="348.935" y="67.0151" width="51.1885" height="51.1885" rx="5.64839" stroke="#F0F0F0" stroke-width="0.529536"/>
<rect x="92.9922" y="118.204" width="51.1885" height="51.1885" rx="5.64839" stroke="#F0F0F0" stroke-width="0.529536"/>
<rect x="144.181" y="118.204" width="51.1885" height="51.1885" rx="5.64839" stroke="#F0F0F0" stroke-width="0.529536"/>
<rect x="195.369" y="118.204" width="51.1885" height="51.1885" rx="5.64839" stroke="#F0F0F0" stroke-width="0.529536"/>
<rect x="246.558" y="118.204" width="51.1885" height="51.1885" rx="5.64839" stroke="#F0F0F0" stroke-width="0.529536"/>
<rect x="297.746" y="118.204" width="51.1885" height="51.1885" rx="5.64839" stroke="#F0F0F0" stroke-width="0.529536"/>
<rect x="348.935" y="118.204" width="51.1885" height="51.1885" rx="5.64839" stroke="#F0F0F0" stroke-width="0.529536"/>
<rect x="92.9922" y="169.392" width="51.1885" height="51.1885" rx="5.64839" stroke="#F0F0F0" stroke-width="0.529536"/>
<rect x="144.181" y="169.392" width="51.1885" height="51.1885" rx="5.64839" stroke="#F0F0F0" stroke-width="0.529536"/>
<rect x="195.369" y="169.392" width="51.1885" height="51.1885" rx="5.64839" stroke="#F0F0F0" stroke-width="0.529536"/>
<rect x="246.558" y="169.392" width="51.1885" height="51.1885" rx="5.64839" stroke="#F0F0F0" stroke-width="0.529536"/>
<rect x="297.746" y="169.392" width="51.1885" height="51.1885" rx="5.64839" stroke="#F0F0F0" stroke-width="0.529536"/>
<rect x="348.935" y="169.392" width="51.1885" height="51.1885" rx="5.64839" stroke="#F0F0F0" stroke-width="0.529536"/>
<rect x="92.9922" y="220.58" width="51.1885" height="51.1885" rx="5.64839" stroke="#F0F0F0" stroke-width="0.529536"/>
<rect x="144.181" y="220.58" width="51.1885" height="51.1885" rx="5.64839" stroke="#F0F0F0" stroke-width="0.529536"/>
<rect x="195.369" y="220.58" width="51.1885" height="51.1885" rx="5.64839" stroke="#F0F0F0" stroke-width="0.529536"/>
<rect x="246.558" y="220.58" width="51.1885" height="51.1885" rx="5.64839" stroke="#F0F0F0" stroke-width="0.529536"/>
<rect x="297.746" y="220.58" width="51.1885" height="51.1885" rx="5.64839" stroke="#F0F0F0" stroke-width="0.529536"/>
<rect x="348.935" y="220.58" width="51.1885" height="51.1885" rx="5.64839" stroke="#F0F0F0" stroke-width="0.529536"/>
<path d="M297.746 -31.1255V10.1783C297.746 13.2979 300.275 15.8267 303.395 15.8267H343.286C346.406 15.8267 348.935 18.3556 348.935 21.4751V61.3668C348.935 64.4864 351.464 67.0152 354.583 67.0152H394.475C397.594 67.0152 400.123 69.5441 400.123 72.6636V112.555C400.123 115.675 402.652 118.204 405.772 118.204H445.663C448.783 118.204 451.312 120.733 451.312 123.852V163.744C451.312 166.863 453.841 169.392 456.96 169.392H498.264M246.558 -31.1255V10.1783C246.558 13.2979 249.086 15.8267 252.206 15.8267H292.098C295.217 15.8267 297.746 18.3556 297.746 21.4751V61.3668C297.746 64.4864 300.275 67.0152 303.395 67.0152H343.286C346.406 67.0152 348.935 69.5441 348.935 72.6636V112.555C348.935 115.675 346.406 118.204 343.286 118.204H303.395C300.275 118.204 297.746 115.675 297.746 112.555V71.9576L297.697 71.6239C297.318 69.0656 295.146 67.1553 292.56 67.1056L287.861 67.0152H252.206C249.086 67.0152 246.558 69.5441 246.558 72.6636V112.555C246.558 115.675 249.086 118.204 252.206 118.204H292.451L293.792 118.293C296.017 118.441 297.746 120.29 297.746 122.52V126.853M297.746 122.44V163.744C297.746 166.863 300.275 169.392 303.395 169.392H343.286C346.406 169.392 348.935 171.921 348.935 175.041V214.932C348.935 218.052 351.464 220.581 354.583 220.581H394.475C397.594 220.581 400.123 223.11 400.123 226.229V266.121C400.123 269.24 402.652 271.769 405.772 271.769H445.663C448.783 271.769 451.312 274.298 451.312 277.418V317.309C451.312 320.429 453.841 322.958 456.96 322.958H498.264" stroke="url(#paint0_linear_7262_6085)" stroke-opacity="0.8" stroke-width="0.529536"/>
</g>
<defs>
<linearGradient id="paint0_linear_7262_6085" x1="492.616" y1="273.358" x2="246.558" y2="-31.1255" gradientUnits="userSpaceOnUse">
<stop offset="0.0819437" stop-color="#F7F7F7"/>
<stop offset="0.208333" stop-color="#002E54"/>
<stop offset="0.526042" stop-color="#002E54"/>
<stop offset="0.9375" stop-color="#002E54"/>
</linearGradient>
<clipPath id="clip0_7262_6085">
<rect width="375" height="257" fill="white"/>
</clipPath>
</defs>
</svg>
