<svg width="20" height="20" viewBox="0 0 20 20" fill="none" xmlns="http://www.w3.org/2000/svg">
<path d="M12.7164 18.5422H7.28307C3.19141 18.5422 1.44141 16.7922 1.44141 12.7006V12.5922C1.44141 8.89222 2.89974 7.10888 6.16641 6.80055C6.49974 6.77555 6.81641 7.02555 6.84974 7.36722C6.88307 7.70888 6.63307 8.01722 6.28307 8.05055C3.66641 8.29222 2.69141 9.52555 2.69141 12.6006V12.7089C2.69141 16.1006 3.89141 17.3006 7.28307 17.3006H12.7164C16.1081 17.3006 17.3081 16.1006 17.3081 12.7089V12.6006C17.3081 9.50888 16.3164 8.27555 13.6497 8.05055C13.3081 8.01722 13.0497 7.71722 13.0831 7.37555C13.1164 7.03388 13.4081 6.77555 13.7581 6.80888C17.0747 7.09222 18.5581 8.88388 18.5581 12.6089V12.7172C18.5581 16.7922 16.8081 18.5422 12.7164 18.5422Z" fill="#002E54"/>
<path d="M10 13.0243C9.65833 13.0243 9.375 12.741 9.375 12.3993V1.66602C9.375 1.32435 9.65833 1.04102 10 1.04102C10.3417 1.04102 10.625 1.32435 10.625 1.66602V12.3993C10.625 12.7493 10.3417 13.0243 10 13.0243Z" fill="#002E54"/>
<path d="M9.99954 13.9576C9.84121 13.9576 9.68288 13.8992 9.55788 13.7742L6.76621 10.9826C6.52454 10.7409 6.52454 10.3409 6.76621 10.0992C7.00788 9.85755 7.40788 9.85755 7.64954 10.0992L9.99954 12.4492L12.3495 10.0992C12.5912 9.85755 12.9912 9.85755 13.2329 10.0992C13.4745 10.3409 13.4745 10.7409 13.2329 10.9826L10.4412 13.7742C10.3162 13.8992 10.1579 13.9576 9.99954 13.9576Z" fill="#002E54"/>
</svg>
