<svg width="18" height="18" viewBox="0 0 18 18" fill="none" xmlns="http://www.w3.org/2000/svg">
<path d="M11.9062 1.57129C12.5249 1.55395 13.2106 1.83949 13.9668 2.55371C14.7231 3.26814 15.0479 3.93695 15.0654 4.55566C15.0829 5.17451 14.7966 5.86075 14.082 6.61719L7.9248 13.1348L7.92285 13.1367C7.68264 13.3941 7.19704 13.6549 6.84961 13.7119L6.84668 13.7129L4.45312 14.1211C4.30089 14.131 4.25365 14.1406 4.15527 14.1406C3.81035 14.1406 3.51128 14.0219 3.30762 13.8281L3.30566 13.8271L3.21387 13.7275C3.01167 13.4815 2.90461 13.131 2.9502 12.7246L3.22754 10.2949C3.24624 10.1323 3.3093 9.91818 3.40918 9.70312C3.50939 9.48744 3.62989 9.30531 3.74023 9.19238L3.74609 9.18652L9.9043 2.66895C10.6188 1.91271 11.2875 1.58876 11.9062 1.57129ZM11.9482 1.68359C11.1508 1.68359 10.521 2.18241 9.99414 2.74023L3.83691 9.26465C3.70795 9.4006 3.60087 9.58942 3.52637 9.74902C3.46966 9.87053 3.41441 10.0133 3.37988 10.1523L3.35254 10.29L3.35156 10.3018L3.07324 12.7314C3.03138 13.0835 3.10979 13.4624 3.39258 13.7295C3.67827 13.999 4.0582 14.0462 4.39551 13.9951L4.4043 13.9932L6.81934 13.5811H6.82031C7.00538 13.5491 7.20455 13.4632 7.36133 13.3789C7.51843 13.2944 7.69815 13.1764 7.8252 13.043L7.82617 13.042L13.9844 6.52441L13.9854 6.52344C14.4653 6.01253 14.8905 5.42463 14.9326 4.72754C14.9763 4.00298 14.601 3.32037 13.8721 2.63574C13.2283 2.01753 12.5944 1.68368 11.9482 1.68359Z" fill="#002E54" stroke="#002E54"/>
<path d="M8.91992 3.72754C8.94424 3.72574 8.96984 3.73654 8.98438 3.75977L8.99512 3.78906C9.31769 5.82465 10.9679 7.39039 13.0234 7.59277H13.0244C13.0385 7.59418 13.0523 7.6006 13.0635 7.61426C13.0727 7.62559 13.0765 7.6389 13.0771 7.65234C13.0736 7.66638 13.0664 7.68128 13.0527 7.69336C13.0365 7.70761 13.0187 7.71289 13.0049 7.71289H12.9854C10.881 7.49615 9.19009 5.89696 8.86426 3.80566C8.85951 3.77323 8.88031 3.73777 8.91992 3.72754Z" fill="#002E54" stroke="#002E54"/>
<path d="M2.25 16.4375H15.75C15.7631 16.4375 15.7787 16.4427 15.793 16.457C15.8073 16.4713 15.8125 16.4869 15.8125 16.5C15.8125 16.5131 15.8073 16.5287 15.793 16.543C15.7787 16.5573 15.7631 16.5625 15.75 16.5625H2.25C2.23694 16.5625 2.22132 16.5573 2.20703 16.543C2.19274 16.5287 2.1875 16.5131 2.1875 16.5C2.1875 16.4869 2.19274 16.4713 2.20703 16.457C2.22132 16.4427 2.23694 16.4375 2.25 16.4375Z" fill="#002E54" stroke="#002E54"/>
</svg>
