<svg width="24" height="24" viewBox="0 0 24 24" fill="none" xmlns="http://www.w3.org/2000/svg">
<path d="M24 12C24 5.37262 18.6274 0 12 0C5.37262 0 0 5.37262 0 12C0 17.9895 4.38825 22.954 10.125 23.8542V15.4688H7.07812V12H10.125V9.35625C10.125 6.34875 11.9166 4.6875 14.6576 4.6875C15.9705 4.6875 17.3438 4.92188 17.3438 4.92188V7.875H15.8306C14.3399 7.875 13.875 8.80003 13.875 9.74906V12H17.2031L16.6711 15.4688H13.875V23.8542C19.6117 22.954 24 17.9896 24 12Z" fill="#1877F2"/>
<path d="M14.6572 4.71875C15.312 4.71875 15.9825 4.77742 16.4893 4.83594C16.7426 4.86519 16.9555 4.89408 17.1045 4.91602C17.1788 4.92696 17.2374 4.936 17.2773 4.94238C17.2914 4.94463 17.3032 4.94671 17.3125 4.94824V7.84375H15.8311C15.0791 7.84375 14.5804 8.07739 14.2705 8.43555C13.9614 8.79299 13.8438 9.26993 13.8438 9.74902V12.0312H17.166L16.6445 15.4375H13.8438V23.8262C13.2336 23.9204 12.6174 23.9689 12 23.9688L11.5303 23.96C11.0702 23.9421 10.6115 23.8965 10.1562 23.8262V15.4375H7.10938V12.0312H10.1562V9.35645C10.1562 7.85893 10.6024 6.7001 11.3857 5.91602C12.1691 5.13208 13.2933 4.71881 14.6572 4.71875Z" stroke="#002E54" stroke-width="0.0625"/>
</svg>
