<svg width="24" height="19" viewBox="0 0 24 19" fill="none" xmlns="http://www.w3.org/2000/svg">
<path d="M5.45456 18.0047V8.73187L2.57878 6.10096L0 4.64099V16.3683C0 17.2737 0.733594 18.0047 1.63641 18.0047H5.45456Z" fill="#4285F4"/>
<path d="M18.5459 18.0047H22.3641C23.2696 18.0047 24.0005 17.271 24.0005 16.3683V4.64108L21.0796 6.3133L18.5459 8.73186V18.0047Z" fill="#34A853"/>
<path d="M5.45479 8.73187L5.06348 5.10871L5.45479 1.64099L12.0002 6.55012L18.5457 1.64099L18.9834 4.92149L18.5457 8.73187L12.0002 13.641L5.45479 8.73187Z" fill="#EA4335"/>
<path d="M18.5459 1.641V8.73188L24.0005 4.641V2.45916C24.0005 0.435564 21.6905 -0.71803 20.0733 0.495564L18.5459 1.641Z" fill="#FBBC04"/>
<path d="M0 4.64101L2.50866 6.52258L5.45456 8.73189V1.64101L3.92719 0.495577C2.30719 -0.718111 0 0.435576 0 2.45908V4.64101Z" fill="#C5221F"/>
</svg>
