<svg width="21" height="21" viewBox="0 0 21 21" fill="none" xmlns="http://www.w3.org/2000/svg">
<path opacity="0.987" fill-rule="evenodd" clip-rule="evenodd" d="M8.93935 0.091125C10.0269 -0.030375 10.6704 -0.030375 11.8389 0.091125C13.9073 0.397268 15.8247 1.35335 17.3139 2.82113C16.3075 3.77233 15.3144 4.73742 14.3349 5.71612C12.4589 4.12612 10.3649 3.75912 8.05285 4.61513C6.35685 5.39512 5.17585 6.65913 4.50985 8.40713C3.42151 7.59687 2.34735 6.76774 1.28785 5.92013C1.21422 5.88137 1.13012 5.86718 1.04785 5.87962C2.73085 2.63462 5.36085 0.704625 8.93785 0.0896249" fill="#F44538"/>
<path opacity="0.997" fill-rule="evenodd" clip-rule="evenodd" d="M1.04438 5.87963C1.12938 5.86663 1.20988 5.88013 1.28588 5.92013C2.34538 6.76775 3.41954 7.59688 4.50788 8.40713C4.33662 9.08822 4.22866 9.78367 4.18538 10.4846C4.22238 11.1626 4.32988 11.8281 4.50788 12.4811L1.12538 15.1736C-0.347622 12.0956 -0.374622 8.99763 1.04438 5.87963Z" fill="#FFC108"/>
<path opacity="0.999" fill-rule="evenodd" clip-rule="evenodd" d="M17.1531 18.4346C16.0999 17.5058 14.9973 16.6345 13.8501 15.8246C15.0001 15.0126 15.6981 13.8986 15.9441 12.4826H10.3086V8.56911C13.5586 8.54211 16.8071 8.56961 20.0541 8.65161C20.6701 11.9966 19.9586 15.0126 17.9196 17.6996C17.6771 17.9573 17.4203 18.2027 17.1531 18.4346Z" fill="#448AFF"/>
<path opacity="0.993" fill-rule="evenodd" clip-rule="evenodd" d="M4.5075 12.4826C5.7375 15.5396 7.9925 16.9666 11.2725 16.7636C12.1932 16.657 13.076 16.3354 13.8495 15.8246C14.9975 16.6366 16.0985 17.5066 17.1525 18.4346C15.4825 19.9353 13.3532 20.8257 11.112 20.9606C10.6028 21.0013 10.0912 21.0013 9.582 20.9606C5.764 20.5106 2.945 18.5816 1.125 15.1736L4.5075 12.4826Z" fill="#43A047"/>
</svg>
