<svg width="24" height="24" viewBox="0 0 24 24" fill="none" xmlns="http://www.w3.org/2000/svg">
<path d="M16.4404 2.84961C19.6415 2.84984 22.2499 5.47324 22.25 8.68945C22.25 11.9738 20.8024 14.7392 18.8682 16.8564C16.9295 18.9784 14.5284 20.4192 12.6982 21.0469L12.6904 21.0488C12.5108 21.1135 12.2721 21.1494 12 21.1494C11.7279 21.1494 11.4892 21.1135 11.3096 21.0488L11.3018 21.0469L10.9521 20.9199C9.17344 20.2365 6.94953 18.8433 5.13184 16.8525C3.19736 14.7338 1.75 11.9686 1.75 8.68945C1.75008 5.46375 4.35802 2.84984 7.55957 2.84961C9.11709 2.84961 10.569 3.45733 11.6445 4.54199L12 4.89941L12.3555 4.54199C13.431 3.45733 14.8829 2.84961 16.4404 2.84961ZM16.4502 3.34961C14.7713 3.34961 13.2121 4.13507 12.208 5.49219L12.207 5.49316C12.1776 5.53289 12.1105 5.57422 12.0098 5.57422C11.909 5.57415 11.8418 5.53292 11.8125 5.49316L11.8096 5.48926C10.7862 4.12499 9.23847 3.34961 7.55957 3.34961C4.63098 3.34984 2.25008 5.74623 2.25 8.68945C2.25 12.2782 3.979 15.0564 5.97266 17.0205C7.96001 18.9783 10.2455 20.1649 11.4678 20.583L11.4717 20.584C11.6377 20.6393 11.8436 20.6543 12.0049 20.6543C12.1661 20.6543 12.3721 20.6393 12.5381 20.584L12.542 20.582C13.7584 20.1642 16.0443 18.9812 18.0332 17.0244C20.0282 15.0616 21.7598 12.2834 21.7598 8.68945C21.7597 5.74615 19.3789 3.34972 16.4502 3.34961Z" fill="#292D32" stroke="#002E54"/>
</svg>
