<svg width="24" height="24" viewBox="0 0 24 24" fill="none" xmlns="http://www.w3.org/2000/svg">
<path d="M9 1.75H15C17.6576 1.75 19.435 2.31976 20.5576 3.44238C21.6802 4.565 22.25 6.3424 22.25 9V15C22.25 17.6576 21.6802 19.435 20.5576 20.5576C19.435 21.6802 17.6576 22.25 15 22.25H9C6.3424 22.25 4.565 21.6802 3.44238 20.5576C2.31976 19.435 1.75 17.6576 1.75 15V9C1.75 6.3424 2.31976 4.565 3.44238 3.44238C4.565 2.31976 6.3424 1.75 9 1.75ZM9 2.25C6.65972 2.25 4.92459 2.66134 3.79297 3.79297C2.66134 4.92459 2.25 6.65972 2.25 9V15C2.25 17.3403 2.66134 19.0754 3.79297 20.207C4.92459 21.3387 6.65972 21.75 9 21.75H15C17.3403 21.75 19.0754 21.3387 20.207 20.207C21.3387 19.0754 21.75 17.3403 21.75 15V9C21.75 6.65972 21.3387 4.92459 20.207 3.79297C19.0754 2.66134 17.3403 2.25 15 2.25H9Z" fill="#7F94B1" stroke="#7F94B1"/>
<path d="M12 8.25C14.0639 8.25 15.75 9.93614 15.75 12C15.75 14.0639 14.0639 15.75 12 15.75C9.93614 15.75 8.25 14.0639 8.25 12C8.25 9.93614 9.93614 8.25 12 8.25ZM12 8.75C10.2039 8.75 8.75 10.2039 8.75 12C8.75 13.7961 10.2039 15.25 12 15.25C13.7961 15.25 15.25 13.7961 15.25 12C15.25 10.2039 13.7961 8.75 12 8.75Z" fill="#7F94B1" stroke="#7F94B1"/>
<path d="M17 7.4999C16.87 7.4999 16.74 7.4699 16.62 7.4199C16.5 7.3699 16.39 7.2999 16.29 7.2099C16.2 7.1099 16.12 6.9999 16.07 6.8799C16.02 6.7599 16 6.6299 16 6.4999C16 6.3699 16.02 6.2399 16.07 6.1199C16.13 5.9899 16.2 5.8899 16.29 5.7899C16.34 5.7499 16.39 5.6999 16.44 5.6699C16.5 5.6299 16.56 5.5999 16.62 5.5799C16.68 5.5499 16.74 5.5299 16.81 5.5199C17.13 5.4499 17.47 5.5599 17.71 5.7899C17.8 5.8899 17.87 5.9899 17.92 6.1199C17.97 6.2399 18 6.3699 18 6.4999C18 6.6299 17.97 6.7599 17.92 6.8799C17.87 6.9999 17.8 7.1099 17.71 7.2099C17.61 7.2999 17.5 7.3699 17.38 7.4199C17.26 7.4699 17.13 7.4999 17 7.4999Z" fill="#7F94B1"/>
</svg>
