<svg width="24" height="24" viewBox="0 0 24 24" fill="none" xmlns="http://www.w3.org/2000/svg">
<path d="M7 5.76001H17C19.1121 5.76001 20.4272 6.23921 21.1777 7.07349C22.0626 8.06041 22.0619 9.41027 21.9531 10.4583L21.9521 10.4631L21.2031 18.4475C21.0972 19.4587 20.8453 20.3779 20.1514 21.0549C19.4608 21.7287 18.2404 22.2502 16 22.2502H8C5.75975 22.2502 4.53929 21.7287 3.84863 21.0559C3.15477 20.38 2.90276 19.4632 2.79688 18.4573L2.04785 10.4534V10.4475L2.01367 10.0461C1.95268 9.07955 2.04716 7.93729 2.82129 7.07349L2.82227 7.07446C3.58224 6.23021 4.89635 5.76004 7 5.76001ZM7 6.25024C5.28907 6.25027 3.93357 6.57537 3.19043 7.40356C2.55461 8.10426 2.40875 9.11683 2.54199 10.3958V10.3967L3.29199 18.4065L3.29297 18.4133C3.37901 19.213 3.54032 20.1076 4.26953 20.7678C4.98981 21.4198 6.15721 21.7502 8 21.7502H16C17.8383 21.7502 19.0061 21.42 19.7275 20.7668C20.4575 20.1057 20.6209 19.2093 20.707 18.4036L20.708 18.3967L21.458 10.4114C21.5838 9.2012 21.4642 8.23398 20.9238 7.53931L20.8105 7.40356C20.0674 6.57514 18.7112 6.25024 17 6.25024H7Z" fill="#7F94B1" stroke="#7F94B1"/>
<path d="M11.2002 1.75H12.7998C14.6899 1.75 15.4724 2.27077 15.8359 2.83594C16.2357 3.45761 16.25 4.28554 16.25 5.2002V6C16.25 6.13386 16.1339 6.25 16 6.25C15.8661 6.25 15.75 6.13386 15.75 6V5.2002C15.75 4.76561 15.7508 4.35572 15.708 4.00586C15.6647 3.65184 15.5707 3.29687 15.3369 2.99902C15.0971 2.69361 14.7583 2.50849 14.3438 2.39941C13.9376 2.29258 13.4277 2.25 12.7998 2.25H11.2002C10.5723 2.25 10.0624 2.29258 9.65625 2.39941C9.24171 2.50849 8.90292 2.69361 8.66309 2.99902C8.42926 3.29687 8.33527 3.65184 8.29199 4.00586C8.24925 4.35572 8.25 4.76561 8.25 5.2002V6C8.25 6.13386 8.13386 6.25 8 6.25C7.86614 6.25 7.75 6.13386 7.75 6V5.2002C7.75 4.28554 7.76434 3.45761 8.16406 2.83594C8.52765 2.27077 9.31009 1.75 11.2002 1.75Z" fill="#7F94B1" stroke="#7F94B1"/>
<path d="M12 16.75C9.25 16.75 9.25 15.05 9.25 14.03V13C9.25 11.59 9.59 11.25 11 11.25H13C14.41 11.25 14.75 11.59 14.75 13V14C14.75 15.04 14.75 16.75 12 16.75ZM10.75 12.75C10.75 12.83 10.75 12.92 10.75 13V14.03C10.75 15.06 10.75 15.25 12 15.25C13.25 15.25 13.25 15.09 13.25 14.02V13C13.25 12.92 13.25 12.83 13.25 12.75C13.17 12.75 13.08 12.75 13 12.75H11C10.92 12.75 10.83 12.75 10.75 12.75Z" fill="#7F94B1"/>
<path d="M13.9995 14.77C13.6295 14.77 13.2995 14.49 13.2595 14.11C13.2095 13.7 13.4995 13.32 13.9095 13.27C16.5495 12.94 19.0795 11.94 21.2095 10.39C21.5395 10.14 22.0095 10.22 22.2595 10.56C22.4995 10.89 22.4295 11.36 22.0895 11.61C19.7495 13.31 16.9895 14.4 14.0895 14.77C14.0595 14.77 14.0295 14.77 13.9995 14.77Z" fill="#7F94B1"/>
<path d="M9.99975 14.7799C9.96975 14.7799 9.93975 14.7799 9.90975 14.7799C7.16975 14.4699 4.49975 13.4699 2.18975 11.8899C1.84975 11.6599 1.75975 11.1899 1.98975 10.8499C2.21975 10.5099 2.68975 10.4199 3.02975 10.6499C5.13975 12.0899 7.56975 12.9999 10.0697 13.2899C10.4797 13.3399 10.7797 13.7099 10.7297 14.1199C10.6997 14.4999 10.3797 14.7799 9.99975 14.7799Z" fill="#7F94B1"/>
</svg>
