<svg width="24" height="24" viewBox="0 0 24 24" fill="none" xmlns="http://www.w3.org/2000/svg">
<path d="M12 1.75C17.6539 1.75 22.25 6.34614 22.25 12C22.25 17.6539 17.6539 22.25 12 22.25C6.34614 22.25 1.75 17.6539 1.75 12C1.75 6.34614 6.34614 1.75 12 1.75ZM12 2.25C6.62386 2.25 2.25 6.62386 2.25 12C2.25 17.3761 6.62386 21.75 12 21.75C17.3761 21.75 21.75 17.3761 21.75 12C21.75 6.62386 17.3761 2.25 12 2.25Z" fill="#002E54" stroke="#002E54"/>
<path d="M8 2.75H9C9.0744 2.75 9.15346 2.78845 9.20215 2.84961C9.25338 2.92443 9.26246 3.00665 9.23828 3.07617L9.23535 3.08203C7.32124 8.83459 7.3214 15.1655 9.23535 20.9277L9.23828 20.9346C9.26144 21.0015 9.25241 21.0789 9.20605 21.1514C9.15574 21.2095 9.07515 21.25 9 21.25H8C7.86624 21.2499 7.75 21.1338 7.75 21C7.75 20.8597 7.85538 20.7535 7.99219 20.75L8.64258 20.7344L8.45996 20.1094C6.91688 14.8412 6.91688 9.15879 8.45996 3.89062L8.64258 3.26562L7.99219 3.25C7.85538 3.24654 7.75 3.14029 7.75 3C7.75 2.86622 7.86624 2.75014 8 2.75Z" fill="#002E54" stroke="#002E54"/>
<path d="M15.0004 21.7507C14.9204 21.7507 14.8404 21.7407 14.7604 21.7107C14.3704 21.5807 14.1504 21.1507 14.2904 20.7607C16.1704 15.1107 16.1704 8.89067 14.2904 3.23067C14.1604 2.84067 14.3704 2.41067 14.7604 2.28067C15.1604 2.15067 15.5804 2.36067 15.7104 2.75067C17.7004 8.71067 17.7004 15.2707 15.7104 21.2207C15.6104 21.5507 15.3104 21.7507 15.0004 21.7507Z" fill="#002E54"/>
<path d="M12 17.2008C9.21 17.2008 6.43 16.8108 3.75 16.0208C3.74 16.4208 3.41 16.7508 3 16.7508C2.59 16.7508 2.25 16.4108 2.25 16.0008V15.0008C2.25 14.7608 2.37 14.5308 2.56 14.3908C2.76 14.2508 3.01 14.2108 3.24 14.2908C8.89 16.1708 15.12 16.1708 20.77 14.2908C21 14.2108 21.25 14.2508 21.45 14.3908C21.65 14.5308 21.76 14.7608 21.76 15.0008V16.0008C21.76 16.4108 21.42 16.7508 21.01 16.7508C20.6 16.7508 20.27 16.4308 20.26 16.0208C17.57 16.8108 14.79 17.2008 12 17.2008Z" fill="#002E54"/>
<path d="M20.9998 9.74938C20.9198 9.74938 20.8398 9.73938 20.7598 9.70938C15.1098 7.82938 8.87978 7.82938 3.22978 9.70938C2.82978 9.83938 2.40978 9.62937 2.27978 9.23937C2.15978 8.83937 2.36978 8.41938 2.75978 8.28938C8.71978 6.29938 15.2798 6.29938 21.2298 8.28938C21.6198 8.41938 21.8398 8.84937 21.6998 9.23937C21.6098 9.54937 21.3098 9.74938 20.9998 9.74938Z" fill="#002E54"/>
</svg>
