<svg width="24" height="24" viewBox="0 0 24 24" fill="none" xmlns="http://www.w3.org/2000/svg">
<path d="M6.73633 9.89478V17.2632M10.9469 13.0527V17.2632M10.9469 13.0527C10.9469 12.638 11.0285 12.2273 11.1872 11.8442C11.3459 11.4611 11.5785 11.1129 11.8718 10.8197C12.165 10.5265 12.5131 10.2939 12.8963 10.1352C13.2794 9.97646 13.69 9.89478 14.1047 9.89478C14.5195 9.89478 14.9301 9.97646 15.3132 10.1352C15.6964 10.2939 16.0445 10.5265 16.3377 10.8197C16.631 11.1129 16.8636 11.4611 17.0223 11.8442C17.181 12.2273 17.2626 12.638 17.2626 13.0527V17.2632M10.9469 13.0527V9.89478" stroke="#7F94B1" stroke-width="2" stroke-linecap="round" stroke-linejoin="round"/>
<path d="M6.7458 6.73682H6.73633" stroke="#7F94B1" stroke-width="2" stroke-linecap="round" stroke-linejoin="round"/>
<path d="M12 1.25C14.3354 1.25 16.1627 1.24821 17.5859 1.43945C19.0307 1.63365 20.1717 2.03886 21.0664 2.93359C21.9611 3.82827 22.3663 4.96841 22.5605 6.41309C22.7519 7.83625 22.75 9.66383 22.75 12C22.75 14.3354 22.7518 16.1627 22.5605 17.5859C22.3664 19.0307 21.9611 20.1717 21.0664 21.0664C20.1717 21.9611 19.0316 22.3663 17.5869 22.5605C16.1638 22.7519 14.3362 22.75 12 22.75C9.66459 22.75 7.83728 22.7518 6.41406 22.5605C4.96927 22.3664 3.82833 21.9611 2.93359 21.0664C2.03892 20.1717 1.63366 19.0316 1.43945 17.5869C1.24815 16.1638 1.25 14.3362 1.25 12C1.25 9.66459 1.24821 7.83728 1.43945 6.41406C1.63365 4.96927 2.03886 3.82833 2.93359 2.93359C3.82827 2.03892 4.96841 1.63366 6.41309 1.43945C7.83625 1.24815 9.66383 1.25 12 1.25Z" stroke="#7F94B1" stroke-width="1.5" stroke-linejoin="round"/>
</svg>
