<svg width="24" height="24" viewBox="0 0 24 24" fill="none" xmlns="http://www.w3.org/2000/svg">
<path d="M15 6.25H16.5C19.6739 6.25 22.25 8.82614 22.25 12C22.25 15.1739 19.6739 17.75 16.5 17.75H14.9902C14.8564 17.75 14.7402 17.6339 14.7402 17.5C14.7402 17.3661 14.8564 17.25 14.9902 17.25H16.5C19.3961 17.25 21.75 14.8961 21.75 12C21.75 9.10386 19.3961 6.75 16.5 6.75H15C14.8662 6.74986 14.75 6.63378 14.75 6.5C14.75 6.36187 14.8606 6.25013 15 6.25Z" fill="#7F94B1" stroke="#7F94B1"/>
<path d="M7.5 6.25H9C9.13386 6.25 9.25 6.36614 9.25 6.5C9.25 6.63386 9.13386 6.75 9 6.75H7.5C4.60386 6.75 2.25 9.10386 2.25 12C2.25 14.8961 4.60386 17.25 7.5 17.25H9C9.13386 17.25 9.25 17.3661 9.25 17.5C9.25 17.6339 9.13386 17.75 9 17.75H7.5C4.32614 17.75 1.75 15.1739 1.75 12C1.75 8.82614 4.32614 6.25 7.5 6.25Z" fill="#7F94B1" stroke="#7F94B1"/>
<path d="M16 12.75H8C7.59 12.75 7.25 12.41 7.25 12C7.25 11.59 7.59 11.25 8 11.25H16C16.41 11.25 16.75 11.59 16.75 12C16.75 12.41 16.41 12.75 16 12.75Z" fill="#7F94B1"/>
</svg>
