<svg width="24" height="24" viewBox="0 0 24 24" fill="none" xmlns="http://www.w3.org/2000/svg">
<path d="M12 1.75C14.9113 1.75 16.4218 2.66912 17.2344 3.8252C18.0724 5.01757 18.25 6.57122 18.25 8V10C18.25 10.1339 18.1339 10.25 18 10.25C17.8661 10.25 17.75 10.1339 17.75 10V8C17.75 6.40247 17.5302 4.9344 16.6436 3.87305C15.7398 2.7913 14.2487 2.25 12 2.25C9.75134 2.25 8.26022 2.7913 7.35645 3.87305C6.46981 4.9344 6.25 6.40247 6.25 8V10C6.25 10.1339 6.13386 10.25 6 10.25C5.86614 10.25 5.75 10.1339 5.75 10V8C5.75 6.57122 5.92759 5.01757 6.76562 3.8252C7.57816 2.66912 9.08867 1.75 12 1.75Z" fill="#7F94B1" stroke="#7F94B1"/>
<path d="M7 9.75H17C19.1878 9.75 20.4406 10.091 21.1748 10.8252C21.909 11.5594 22.25 12.8122 22.25 15V17C22.25 19.1878 21.909 20.4406 21.1748 21.1748C20.4406 21.909 19.1878 22.25 17 22.25H7C4.81222 22.25 3.55935 21.909 2.8252 21.1748C2.09104 20.4406 1.75 19.1878 1.75 17V15C1.75 12.8122 2.09104 11.5594 2.8252 10.8252C3.55935 10.091 4.81222 9.75 7 9.75ZM7 10.25C6.09631 10.25 5.34116 10.2923 4.72266 10.4229C4.09867 10.5546 3.57735 10.7833 3.17871 11.1826C2.78008 11.5821 2.55175 12.1041 2.4209 12.7275C2.29129 13.3453 2.25 14.0991 2.25 15V17C2.25 17.9009 2.29129 18.6547 2.4209 19.2725C2.55175 19.8959 2.78008 20.4179 3.17871 20.8174C3.57735 21.2167 4.09867 21.4454 4.72266 21.5771C5.34116 21.7077 6.09631 21.75 7 21.75H17C17.9037 21.75 18.6588 21.7077 19.2773 21.5771C19.9013 21.4454 20.4226 21.2167 20.8213 20.8174C21.2199 20.4179 21.4483 19.8959 21.5791 19.2725C21.7087 18.6547 21.75 17.9009 21.75 17V15C21.75 14.0991 21.7087 13.3453 21.5791 12.7275C21.4483 12.1041 21.2199 11.5821 20.8213 11.1826C20.4226 10.7833 19.9013 10.5546 19.2773 10.4229C18.6588 10.2923 17.9037 10.25 17 10.25H7Z" fill="#7F94B1" stroke="#7F94B1"/>
<path d="M8 17C7.87 17 7.74 16.97 7.62 16.92C7.49 16.87 7.39001 16.8 7.29001 16.71C7.11001 16.52 7 16.27 7 16C7 15.87 7.02999 15.74 7.07999 15.62C7.12999 15.49 7.20001 15.39 7.29001 15.29C7.39001 15.2 7.49 15.13 7.62 15.08C7.98 14.92 8.42999 15.01 8.70999 15.29C8.79999 15.39 8.87001 15.5 8.92001 15.62C8.97001 15.74 9 15.87 9 16C9 16.26 8.88999 16.52 8.70999 16.71C8.51999 16.89 8.26 17 8 17Z" fill="#7F94B1"/>
<path d="M12 17C11.74 17 11.48 16.89 11.29 16.71C11.11 16.52 11 16.27 11 16C11 15.87 11.02 15.74 11.08 15.62C11.13 15.5 11.2 15.39 11.29 15.29C11.52 15.06 11.87 14.95 12.19 15.02C12.26 15.03 12.32 15.05 12.38 15.08C12.44 15.1 12.5 15.13 12.56 15.17C12.61 15.2 12.66 15.25 12.71 15.29C12.8 15.39 12.87 15.5 12.92 15.62C12.97 15.74 13 15.87 13 16C13 16.27 12.89 16.52 12.71 16.71C12.66 16.75 12.61 16.79 12.56 16.83C12.5 16.87 12.44 16.9 12.38 16.92C12.32 16.95 12.26 16.97 12.19 16.98C12.13 16.99 12.06 17 12 17Z" fill="#7F94B1"/>
<path d="M16 17C15.73 17 15.48 16.89 15.29 16.71C15.2 16.61 15.13 16.5 15.08 16.38C15.03 16.26 15 16.13 15 16C15 15.74 15.11 15.48 15.29 15.29C15.34 15.25 15.39 15.21 15.44 15.17C15.5 15.13 15.56 15.1 15.62 15.08C15.68 15.05 15.74 15.03 15.8 15.02C16.13 14.95 16.47 15.06 16.71 15.29C16.89 15.48 17 15.73 17 16C17 16.13 16.97 16.26 16.92 16.38C16.87 16.51 16.8 16.61 16.71 16.71C16.52 16.89 16.26 17 16 17Z" fill="#7F94B1"/>
</svg>
