<svg width="24" height="24" viewBox="0 0 24 24" fill="none" xmlns="http://www.w3.org/2000/svg">
<path d="M15.1094 2.23047H15.2393C17.6367 2.23047 19.2297 2.74537 20.2324 3.74805C21.2349 4.75071 21.75 6.34308 21.75 8.74023V15.2607C21.75 17.6579 21.2349 19.2503 20.2324 20.2529C19.2297 21.2556 17.6367 21.7705 15.2393 21.7705H15.1094C12.9443 21.7705 11.434 21.3421 10.4248 20.5186C9.42676 19.7039 8.8346 18.4326 8.65723 16.5537V16.502C8.66924 16.3874 8.76056 16.2904 8.88672 16.2783H8.93555C9.02826 16.2903 9.1197 16.3629 9.15137 16.459L9.16211 16.5088C9.31324 18.1414 9.784 19.3796 10.8047 20.1855C11.8073 20.9771 13.2416 21.2705 15.1191 21.2705H15.25C17.3194 21.2705 18.8705 20.9098 19.8848 19.8955C20.899 18.8812 21.2597 17.3302 21.2598 15.2607V8.74023C21.2597 6.6708 20.899 5.11981 19.8848 4.10547C18.8705 3.09117 17.3194 2.73052 15.25 2.73047H15.1191C13.2311 2.73051 11.7896 3.0291 10.7861 3.83594C9.76919 4.65366 9.30522 5.90711 9.16309 7.55957C9.14304 7.72396 9.01407 7.81486 8.88672 7.80273L8.875 7.80176L8.82715 7.79297C8.7198 7.76215 8.63796 7.65621 8.64746 7.52637C8.81138 5.62042 9.40008 4.33004 10.3994 3.50293C11.4105 2.66609 12.9296 2.23049 15.1094 2.23047Z" fill="#DE3024" stroke="#DE3024"/>
<path d="M3.62012 11.75H15C15.1339 11.75 15.25 11.8661 15.25 12C15.25 12.1339 15.1339 12.25 15 12.25H3.62012C3.48626 12.25 3.37012 12.1339 3.37012 12C3.37012 11.8661 3.48626 11.75 3.62012 11.75Z" fill="#DE3024" stroke="#DE3024"/>
<path d="M5.85043 16.0998C5.66043 16.0998 5.47043 16.0298 5.32043 15.8798L1.97043 12.5298C1.68043 12.2398 1.68043 11.7598 1.97043 11.4698L5.32043 8.11984C5.61043 7.82984 6.09043 7.82984 6.38043 8.11984C6.67043 8.40984 6.67043 8.88984 6.38043 9.17984L3.56043 11.9998L6.38043 14.8198C6.67043 15.1098 6.67043 15.5898 6.38043 15.8798C6.24043 16.0298 6.04043 16.0998 5.85043 16.0998Z" fill="#DE3024"/>
</svg>
