<svg width="70" height="70" viewBox="0 0 70 70" fill="none" xmlns="http://www.w3.org/2000/svg">
<path d="M34.7203 57.4141C28.507 57.4141 22.2936 56.4274 16.4003 54.4541C14.1603 53.6808 12.4536 52.1074 11.707 50.0541C10.9336 48.0008 11.2003 45.7341 12.427 43.7074L15.4936 38.6141C16.1336 37.5474 16.7203 35.4141 16.7203 34.1608V26.4541C16.7203 16.5341 24.8003 8.4541 34.7203 8.4541C44.6403 8.4541 52.7203 16.5341 52.7203 26.4541V34.1608C52.7203 35.3874 53.307 37.5474 53.947 38.6408L56.987 43.7074C58.1336 45.6274 58.347 47.9474 57.5736 50.0541C56.8003 52.1608 55.1203 53.7608 53.0136 54.4541C47.147 56.4274 40.9336 57.4141 34.7203 57.4141ZM34.7203 12.4541C27.0136 12.4541 20.7203 18.7208 20.7203 26.4541V34.1608C20.7203 36.1074 19.9203 38.9874 18.9336 40.6674L15.867 45.7608C15.2803 46.7474 15.1203 47.7874 15.467 48.6674C15.787 49.5741 16.587 50.2674 17.6803 50.6408C28.827 54.3741 40.6403 54.3741 51.787 50.6408C52.747 50.3208 53.4936 49.6008 53.8403 48.6408C54.187 47.6808 54.107 46.6408 53.5736 45.7608L50.507 40.6674C49.4936 38.9341 48.7203 36.0808 48.7203 34.1341V26.4541C48.7203 18.7208 42.4536 12.4541 34.7203 12.4541Z" fill="#005695"/>
<path d="M39.6803 13.1735C39.4936 13.1735 39.307 13.1468 39.1203 13.0935C38.347 12.8801 37.6003 12.7201 36.8803 12.6135C34.6136 12.3201 32.427 12.4801 30.3736 13.0935C29.627 13.3335 28.827 13.0935 28.3203 12.5335C27.8136 11.9735 27.6536 11.1735 27.947 10.4535C29.0403 7.65348 31.707 5.81348 34.747 5.81348C37.787 5.81348 40.4536 7.62681 41.547 10.4535C41.8136 11.1735 41.6803 11.9735 41.1736 12.5335C40.7736 12.9601 40.2136 13.1735 39.6803 13.1735Z" fill="#005695"/>
<path d="M34.7207 63.4941C32.0807 63.4941 29.5207 62.4275 27.654 60.5608C25.7874 58.6941 24.7207 56.1341 24.7207 53.4941H28.7207C28.7207 55.0675 29.3607 56.6141 30.4807 57.7341C31.6007 58.8541 33.1474 59.4941 34.7207 59.4941C38.0274 59.4941 40.7207 56.8008 40.7207 53.4941H44.7207C44.7207 59.0141 40.2407 63.4941 34.7207 63.4941Z" fill="#005695"/>
<path d="M61.9209 2.37207C63.305 0.988088 65.5778 0.988088 66.9619 2.37207C68.3461 3.75615 68.3461 6.02905 66.9619 7.41309L7.41309 66.9551C6.70327 67.6647 5.79267 68 4.89258 68C3.99248 68 3.08188 67.6647 2.37207 66.9551C0.987839 65.571 0.987844 63.2972 2.37207 61.9131L61.9209 2.37207Z" fill="#005695" stroke="white" stroke-width="2.66667"/>
</svg>
