<svg width="24" height="24" viewBox="0 0 24 24" fill="none" xmlns="http://www.w3.org/2000/svg">
<path d="M5.10059 5.61914H12.8799C14.7337 5.61914 16.2402 7.12563 16.2402 8.97949V20.3389C16.2402 21.1781 15.9177 21.7583 15.4385 22.0469C14.9883 22.3088 14.3733 22.3285 13.6895 21.9932L13.5518 21.9219L9.62402 19.7324H9.62305C9.42127 19.6183 9.1769 19.5869 8.99023 19.5869C8.82483 19.5869 8.614 19.6113 8.42773 19.6963L8.35645 19.7324L4.42676 21.9219L4.42383 21.9238C4.02767 22.1477 3.64139 22.249 3.2998 22.249C3.02269 22.249 2.76329 22.1799 2.54785 22.0508L2.54199 22.0469L2.4541 21.9912C2.02741 21.6961 1.74023 21.1317 1.74023 20.3389V8.97949C1.74023 7.12563 3.24673 5.61914 5.10059 5.61914ZM5.11035 6.12891C3.53421 6.12891 2.25 7.41312 2.25 8.98926V20.3496C2.25004 20.5997 2.28653 20.8433 2.36523 21.0557C2.44092 21.2597 2.57594 21.4868 2.80957 21.6221C3.04036 21.7557 3.30242 21.7627 3.51758 21.7295C3.68561 21.7035 3.85805 21.6488 4.02637 21.5713L4.19336 21.4863L8.12012 19.2979C8.61038 19.0297 9.38933 19.029 9.87988 19.2969L13.8066 21.4863H13.8076C14.0258 21.6075 14.2546 21.6946 14.4785 21.7295C14.6977 21.7636 14.9529 21.7527 15.1816 21.627L15.1904 21.6221C15.4241 21.4868 15.5601 21.2598 15.6357 21.0557C15.7144 20.8433 15.75 20.5997 15.75 20.3496V8.98926C15.75 7.41324 14.4666 6.12911 12.8906 6.12891H5.11035Z" fill="#002E54" stroke="#002E54"/>
<path d="M5.11035 5.64062H12.8896C14.7435 5.64062 16.25 7.14712 16.25 9.00098V20.3604C16.25 21.1924 15.926 21.7778 15.4531 22.0557C15.2309 22.1815 14.9766 22.2509 14.6904 22.251C14.3501 22.251 13.9699 22.1496 13.5547 21.9287L9.63379 19.7441L9.62305 19.7383L9.4668 19.6729C9.30543 19.6208 9.13333 19.6055 8.99512 19.6055C8.81081 19.6055 8.56636 19.6335 8.36719 19.7383L8.35645 19.7441L4.43848 21.9326C3.69871 22.3417 3.02255 22.3368 2.55469 22.0605L2.55176 22.0586L2.46387 22.0029C2.03646 21.7074 1.75 21.1429 1.75 20.3604V9.00098C1.75 7.14712 3.25649 5.64062 5.11035 5.64062ZM5.11035 6.13086C3.53433 6.13086 2.2502 7.41426 2.25 8.99023V20.3506C2.25 20.6008 2.28651 20.8442 2.36523 21.0566C2.4409 21.2608 2.57587 21.4877 2.80957 21.623C3.04042 21.7567 3.30239 21.7647 3.51758 21.7314C3.74158 21.6968 3.97243 21.6095 4.19238 21.4873H4.19336L8.11426 19.3018C8.35157 19.1757 8.66908 19.1006 9 19.1006C9.24551 19.1006 9.4789 19.142 9.68457 19.2197L9.88086 19.3096L13.8066 21.4971L13.8076 21.498C14.0271 21.6199 14.2596 21.707 14.4863 21.7402C14.7001 21.7715 14.96 21.7598 15.1895 21.6221L15.1904 21.623C15.1925 21.6219 15.1943 21.6203 15.1963 21.6191C15.1997 21.617 15.2036 21.6154 15.207 21.6133L15.2061 21.6123C15.4298 21.476 15.5609 21.256 15.6348 21.0566C15.7135 20.8442 15.75 20.6008 15.75 20.3506V8.99023C15.7498 7.41426 14.4657 6.13086 12.8896 6.13086H5.11035Z" fill="#002E54" stroke="#002E54"/>
<path d="M20.69 18.8698C20.25 18.8698 19.79 18.7397 19.32 18.4897L15.63 16.4297C15.39 16.2997 15.25 16.0498 15.25 15.7798V8.99976C15.25 7.69976 14.19 6.63977 12.89 6.63977H8C7.59 6.63977 7.25 6.29977 7.25 5.88977V5.11975C7.25 2.98975 8.97999 1.25977 11.11 1.25977H18.89C21.02 1.25977 22.75 2.98975 22.75 5.11975V16.4798C22.75 17.4398 22.37 18.2197 21.7 18.6097C21.4 18.7797 21.06 18.8698 20.69 18.8698ZM16.75 15.3297L20.05 17.1797C20.41 17.3797 20.74 17.4298 20.94 17.3098C21.14 17.1898 21.25 16.8798 21.25 16.4698V5.10974C21.25 3.80974 20.19 2.74976 18.89 2.74976H11.11C9.80999 2.74976 8.75 3.80974 8.75 5.10974V5.12976H12.89C15.02 5.12976 16.75 6.85975 16.75 8.98975V15.3297Z" fill="#002E54"/>
</svg>
