<svg width="24" height="24" viewBox="0 0 24 24" fill="none" xmlns="http://www.w3.org/2000/svg">
<path d="M20.9795 10.97C21.1133 10.97 21.2295 11.0861 21.2295 11.22V15.7112C21.2343 18.1184 20.7201 19.7185 19.7139 20.7258C18.7075 21.7332 17.1074 22.2502 14.7002 22.2502H9.2998C6.88742 22.2502 5.28757 21.733 4.28125 20.7258C3.27487 19.7184 2.7598 18.118 2.75977 15.7102V11.22C2.75977 11.0861 2.87591 10.97 3.00977 10.97C3.14362 10.97 3.25977 11.0861 3.25977 11.22V15.7102C3.25979 17.79 3.62333 19.3482 4.64258 20.3674C5.66187 21.3866 7.22003 21.7502 9.2998 21.7502H14.6895C16.7691 21.7502 18.3274 21.3865 19.3467 20.3674C20.3659 19.3482 20.7295 17.79 20.7295 15.7102V11.22C20.7295 11.0862 20.8457 10.9701 20.9795 10.97Z" fill="#002E54" stroke="#002E54"/>
<path d="M9.67969 1.75H14.3496C14.4648 1.75 14.561 1.82207 14.5928 1.93164L14.6025 1.98145L15.2725 8.66016C15.3689 9.62548 15.0791 10.514 14.4668 11.1953C13.8237 11.8777 12.9603 12.25 12 12.25C11.034 12.25 10.1716 11.8741 9.56152 11.1953C8.94949 10.5141 8.6614 9.62528 8.75781 8.66016L9.42773 1.98242C9.44174 1.84933 9.55334 1.75016 9.67969 1.75ZM9.85254 2.7002L9.25293 8.70801C9.16928 9.50866 9.40726 10.2819 9.92871 10.8545V10.8555C10.4652 11.4487 11.2481 11.7246 12 11.7246C12.7519 11.7246 13.5348 11.4487 14.0713 10.8555L14.0732 10.8535C14.5911 10.2741 14.8314 9.5018 14.7471 8.70703L14.1475 2.7002L14.1025 2.25H9.89746L9.85254 2.7002Z" fill="#002E54" stroke="#002E54"/>
<path d="M18.31 12.75C16.28 12.75 14.47 11.11 14.26 9.09L13.56 2.08C13.54 1.87 13.61 1.66 13.75 1.5C13.89 1.34 14.09 1.25 14.31 1.25H17.36C20.3 1.25 21.67 2.48 22.08 5.5L22.36 8.28C22.48 9.46 22.12 10.58 21.35 11.43C20.58 12.28 19.5 12.75 18.31 12.75ZM15.14 2.75L15.76 8.94C15.89 10.19 17.05 11.25 18.31 11.25C19.07 11.25 19.75 10.96 20.24 10.43C20.72 9.9 20.94 9.19 20.87 8.43L20.59 5.68C20.28 3.42 19.55 2.75 17.36 2.75H15.14Z" fill="#002E54"/>
<path d="M5.64002 12.75C4.45002 12.75 3.37002 12.28 2.60002 11.43C1.83002 10.58 1.47002 9.46 1.59002 8.28L1.86002 5.53C2.28002 2.48 3.65002 1.25 6.59002 1.25H9.64002C9.85002 1.25 10.05 1.34 10.2 1.5C10.35 1.66 10.41 1.87 10.39 2.08L9.69002 9.09C9.48002 11.11 7.67002 12.75 5.64002 12.75ZM6.59002 2.75C4.40002 2.75 3.67002 3.41 3.35002 5.7L3.08002 8.43C3.00002 9.19 3.23002 9.9 3.71002 10.43C4.19002 10.96 4.87002 11.25 5.64002 11.25C6.90002 11.25 8.07002 10.19 8.19002 8.94L8.81002 2.75H6.59002Z" fill="#002E54"/>
<path d="M14.5 22.75H9.5C9.09 22.75 8.75 22.41 8.75 22V19.5C8.75 17.4 9.9 16.25 12 16.25C14.1 16.25 15.25 17.4 15.25 19.5V22C15.25 22.41 14.91 22.75 14.5 22.75ZM10.25 21.25H13.75V19.5C13.75 18.24 13.26 17.75 12 17.75C10.74 17.75 10.25 18.24 10.25 19.5V21.25Z" fill="#002E54"/>
</svg>
