<svg width="24" height="24" viewBox="0 0 24 24" fill="none" xmlns="http://www.w3.org/2000/svg">
<path d="M11.6934 2.51758C13.1143 2.45407 14.487 2.9833 15.4863 3.98242L20.0166 8.5127C21.9713 10.4674 21.9713 13.6615 20.0166 15.6162L15.627 20.0059C14.6443 20.9885 13.3627 21.4794 12.0703 21.4795C10.7866 21.4795 9.49531 20.9875 8.52344 20.0156L3.99316 15.4854C2.99452 14.4864 2.46598 13.1043 2.5293 11.6934L2.76953 6.68359V6.68262C2.8676 4.55194 4.55014 2.86536 6.69434 2.75781L11.6943 2.51855L11.6934 2.51758ZM11.708 3.03027H11.7061L6.70605 3.26953C4.88614 3.34935 3.44579 4.73844 3.27344 6.53027L3.26074 6.70508L3.02051 11.7158V11.7168C2.96423 12.9774 3.44769 14.2241 4.34668 15.123L8.87695 19.6533C10.6421 21.4181 13.5083 21.4181 15.2734 19.6533L19.6641 15.2627C21.4289 13.4975 21.4288 10.6314 19.6641 8.86621L19.6631 8.86523L15.123 4.34473C14.2222 3.44438 12.9951 2.97431 11.708 3.03027Z" fill="#002E54" stroke="#002E54"/>
<path d="M9.5 6.75C11.0139 6.75 12.25 7.98614 12.25 9.5C12.25 11.0139 11.0139 12.25 9.5 12.25C7.98614 12.25 6.75 11.0139 6.75 9.5C6.75 7.98614 7.98614 6.75 9.5 6.75ZM9.5 7.25C8.26386 7.25 7.25 8.26386 7.25 9.5C7.25 10.7361 8.26386 11.75 9.5 11.75C10.7361 11.75 11.75 10.7361 11.75 9.5C11.75 8.26386 10.7361 7.25 9.5 7.25Z" fill="#002E54" stroke="#002E54"/>
<path d="M13.0004 17.7495C12.8104 17.7495 12.6204 17.6795 12.4704 17.5295C12.1804 17.2395 12.1804 16.7595 12.4704 16.4695L16.4704 12.4695C16.7604 12.1795 17.2404 12.1795 17.5304 12.4695C17.8204 12.7595 17.8204 13.2395 17.5304 13.5295L13.5304 17.5295C13.3804 17.6795 13.1904 17.7495 13.0004 17.7495Z" fill="#002E54"/>
</svg>
