<svg width="24" height="24" viewBox="0 0 24 24" fill="none" xmlns="http://www.w3.org/2000/svg">
<path d="M15 17.25H22C22.1339 17.25 22.25 17.3661 22.25 17.5C22.25 17.6339 22.1339 17.75 22 17.75H15C14.8661 17.75 14.75 17.6339 14.75 17.5C14.75 17.3661 14.8661 17.25 15 17.25Z" fill="#5F7698" stroke="#5F7698"/>
<path d="M2 17.25H5C5.13386 17.25 5.25 17.3661 5.25 17.5C5.25 17.6339 5.13386 17.75 5 17.75H2C1.86614 17.75 1.75 17.6339 1.75 17.5C1.75 17.3661 1.86614 17.25 2 17.25Z" fill="#5F7698" stroke="#5F7698"/>
<path d="M19 6.25H22C22.1339 6.25 22.25 6.36614 22.25 6.5C22.25 6.63386 22.1339 6.75 22 6.75H19C18.8661 6.75 18.75 6.63386 18.75 6.5C18.75 6.36614 18.8661 6.25 19 6.25Z" fill="#5F7698" stroke="#5F7698"/>
<path d="M9 7.25H2C1.59 7.25 1.25 6.91 1.25 6.5C1.25 6.09 1.59 5.75 2 5.75H9C9.41 5.75 9.75 6.09 9.75 6.5C9.75 6.91 9.41 7.25 9 7.25Z" fill="#5F7698"/>
<path d="M13 21.25H7C5.28 21.25 4.25 20.22 4.25 18.5V16.5C4.25 14.78 5.28 13.75 7 13.75H13C14.72 13.75 15.75 14.78 15.75 16.5V18.5C15.75 20.22 14.72 21.25 13 21.25ZM7 15.25C6.11 15.25 5.75 15.61 5.75 16.5V18.5C5.75 19.39 6.11 19.75 7 19.75H13C13.89 19.75 14.25 19.39 14.25 18.5V16.5C14.25 15.61 13.89 15.25 13 15.25H7Z" fill="#5F7698"/>
<path d="M17 10.25H11C9.28 10.25 8.25 9.22 8.25 7.5V5.5C8.25 3.78 9.28 2.75 11 2.75H17C18.72 2.75 19.75 3.78 19.75 5.5V7.5C19.75 9.22 18.72 10.25 17 10.25ZM11 4.25C10.11 4.25 9.75 4.61 9.75 5.5V7.5C9.75 8.39 10.11 8.75 11 8.75H17C17.89 8.75 18.25 8.39 18.25 7.5V5.5C18.25 4.61 17.89 4.25 17 4.25H11Z" fill="#5F7698"/>
</svg>
