<svg width="24" height="24" viewBox="0 0 24 24" fill="none" xmlns="http://www.w3.org/2000/svg">
<path d="M16.4404 2.8501C19.6415 2.85033 22.2499 5.47372 22.25 8.68994C22.25 11.9742 20.8024 14.7396 18.8682 16.8569C16.9295 18.9789 14.5284 20.4197 12.6982 21.0474L12.6904 21.0493C12.5108 21.114 12.2721 21.1499 12 21.1499C11.7279 21.1499 11.4892 21.114 11.3096 21.0493L11.3018 21.0474L10.9521 20.9204C9.17344 20.237 6.94953 18.8438 5.13184 16.853C3.19736 14.7343 1.75 11.9691 1.75 8.68994C1.75008 5.46424 4.35802 2.85033 7.55957 2.8501C9.11709 2.8501 10.569 3.45782 11.6445 4.54248L12 4.8999L12.3555 4.54248C13.431 3.45782 14.8829 2.8501 16.4404 2.8501ZM16.4502 3.3501C14.7713 3.3501 13.2121 4.13556 12.208 5.49268L12.207 5.49365C12.1776 5.53337 12.1105 5.57471 12.0098 5.57471C11.909 5.57464 11.8418 5.53341 11.8125 5.49365L11.8096 5.48975C10.7862 4.12548 9.23847 3.3501 7.55957 3.3501C4.63098 3.35033 2.25008 5.74672 2.25 8.68994C2.25 12.2787 3.979 15.0569 5.97266 17.021C7.96001 18.9788 10.2455 20.1654 11.4678 20.5835L11.4717 20.5845C11.6377 20.6398 11.8436 20.6548 12.0049 20.6548C12.1661 20.6548 12.3721 20.6398 12.5381 20.5845L12.542 20.5825C13.7584 20.1647 16.0443 18.9816 18.0332 17.0249C20.0282 15.062 21.7598 12.2839 21.7598 8.68994C21.7597 5.74664 19.3789 3.3502 16.4502 3.3501Z" fill="#002E54" stroke="#002E54"/>
</svg>
