<svg width="64" height="64" viewBox="0 0 64 64" fill="none" xmlns="http://www.w3.org/2000/svg">
<path d="M16.293 48.6672C15.813 48.6672 15.3063 48.4805 14.9329 48.1338C9.65294 43.1738 3.33301 34.8272 3.33301 23.1738C3.33301 13.8405 10.8797 6.26709 20.1597 6.26709C24.6663 6.26709 28.8797 8.02716 31.9997 11.1738C35.1197 8.02716 39.333 6.26709 43.8397 6.26709C47.1997 6.26709 50.4529 7.28047 53.2529 9.14714C54.1596 9.76047 54.3996 11.0137 53.7863 11.9204C53.173 12.8271 51.9197 13.0671 51.013 12.4538C48.9064 11.0138 46.4264 10.2406 43.8664 10.2406C39.813 10.2406 36.053 12.1339 33.6263 15.4139C32.8796 16.4272 31.1729 16.4272 30.4263 15.4139C27.9729 12.1339 24.2397 10.2406 20.1864 10.2406C13.1197 10.2406 7.3597 16.0271 7.3597 23.1471C7.3597 33.3871 12.9864 40.7739 17.7064 45.2005C18.5064 45.9472 18.5597 47.2272 17.813 48.0272C17.3597 48.4538 16.8263 48.6672 16.293 48.6672Z" fill="#005695"/>
<path d="M31.9984 57.7327C31.1717 57.7327 30.3718 57.626 29.7051 57.386C27.7051 56.6927 25.3318 55.5727 23.0385 54.2127C22.0785 53.6527 21.7851 52.426 22.3451 51.466C22.9051 50.5326 24.1317 50.2126 25.0917 50.7726C27.1717 51.9993 29.2784 53.0126 31.0118 53.5993C31.4918 53.7593 32.5318 53.7593 33.0118 53.5993C39.1451 51.4926 56.6918 41.386 56.6918 23.146C56.6918 21.8126 56.4784 20.5059 56.105 19.2526C55.785 18.1859 56.3452 17.0661 57.4118 16.7461C58.4785 16.4261 59.5983 17.0127 59.9183 18.0527C60.425 19.706 60.6918 21.4126 60.6918 23.146C60.6918 41.4926 44.5051 53.866 34.3184 57.3594C33.6251 57.626 32.8251 57.7327 31.9984 57.7327Z" fill="#005695"/>
<path d="M5.33228 60.6666C4.82561 60.6666 4.31887 60.48 3.91887 60.08C3.14553 59.3067 3.14553 58.0265 3.91887 57.2532L57.2522 3.91984C58.0255 3.14651 59.3057 3.14651 60.079 3.91984C60.8524 4.69318 60.8524 5.97333 60.079 6.74667L6.74569 60.08C6.34569 60.48 5.83895 60.6666 5.33228 60.6666Z" fill="#005695"/>
</svg>
