<svg width="24" height="24" viewBox="0 0 24 24" fill="none" xmlns="http://www.w3.org/2000/svg">
<path d="M4.15039 1.75H8.4502C9.27488 1.75003 9.8587 1.98576 10.2363 2.36328C10.614 2.74095 10.8496 3.32546 10.8496 4.15039V6C10.8496 6.13386 10.7335 6.25 10.5996 6.25C10.4659 6.24979 10.3496 6.13374 10.3496 6V4.15039C10.3496 3.59965 10.2514 3.07957 9.88574 2.71387C9.5201 2.34837 9.00077 2.25002 8.4502 2.25H4.15039C3.59964 2.25 3.07957 2.34817 2.71387 2.71387C2.34817 3.07957 2.25 3.59964 2.25 4.15039V15.8496C2.25 16.4004 2.34817 16.9204 2.71387 17.2861C3.07957 17.6518 3.59964 17.75 4.15039 17.75H6.7002C6.83398 17.7501 6.9502 17.8662 6.9502 18C6.9502 18.1338 6.83398 18.2499 6.7002 18.25H4.15039C3.32547 18.25 2.74095 18.0144 2.36328 17.6367C1.98561 17.259 1.75 16.6745 1.75 15.8496V4.15039C1.75 3.32547 1.98561 2.74095 2.36328 2.36328C2.74095 1.98561 3.32547 1.75 4.15039 1.75Z" fill="#002E54" stroke="#002E54"/>
<path d="M9.12012 5.75H14.96C15.8694 5.75 16.5181 6.01046 16.9395 6.43359C17.3611 6.85721 17.6201 7.50908 17.6201 8.41992V19.5801C17.6201 20.4909 17.3611 21.1428 16.9395 21.5664C16.5181 21.9895 15.8694 22.25 14.96 22.25H9.12012C8.21045 22.25 7.55879 21.9895 7.13477 21.5654C6.71074 21.1414 6.45021 20.4897 6.4502 19.5801V8.41992C6.45021 7.51025 6.71074 6.8586 7.13477 6.43457C7.55879 6.01055 8.21045 5.75001 9.12012 5.75ZM9.12012 6.25C8.47339 6.25001 7.88965 6.37304 7.48145 6.78125C7.07324 7.18946 6.9502 7.77319 6.9502 8.41992V19.5801C6.9502 20.2268 7.07324 20.8105 7.48145 21.2188C7.88965 21.627 8.47339 21.75 9.12012 21.75H14.96C15.6027 21.75 16.1841 21.6264 16.5908 21.2178C16.9969 20.8098 17.1201 20.2269 17.1201 19.5801V8.41992C17.1201 7.77314 16.9969 7.19024 16.5908 6.78223C16.1841 6.3736 15.6027 6.25 14.96 6.25H9.12012Z" fill="#002E54" stroke="#002E54"/>
<path d="M19.8503 18.75H17.3704C16.9604 18.75 16.6204 18.41 16.6204 18C16.6204 17.59 16.9604 17.25 17.3704 17.25H19.8503C20.8703 17.25 21.2504 16.87 21.2504 15.85V4.15002C21.2504 3.13002 20.8703 2.75 19.8503 2.75H15.5504C14.5304 2.75 14.1504 3.13002 14.1504 4.15002V6C14.1504 6.41 13.8104 6.75 13.4004 6.75C12.9904 6.75 12.6504 6.41 12.6504 6V4.15002C12.6504 2.31002 13.7104 1.25 15.5504 1.25H19.8503C21.6903 1.25 22.7504 2.31002 22.7504 4.15002V15.85C22.7504 17.69 21.6903 18.75 19.8503 18.75Z" fill="#002E54"/>
<path d="M14 11.75H10C9.59 11.75 9.25 11.41 9.25 11C9.25 10.59 9.59 10.25 10 10.25H14C14.41 10.25 14.75 10.59 14.75 11C14.75 11.41 14.41 11.75 14 11.75Z" fill="#002E54"/>
<path d="M14 14.75H10C9.59 14.75 9.25 14.41 9.25 14C9.25 13.59 9.59 13.25 10 13.25H14C14.41 13.25 14.75 13.59 14.75 14C14.75 14.41 14.41 14.75 14 14.75Z" fill="#002E54"/>
<path d="M12 22.75C11.59 22.75 11.25 22.41 11.25 22V19C11.25 18.59 11.59 18.25 12 18.25C12.41 18.25 12.75 18.59 12.75 19V22C12.75 22.41 12.41 22.75 12 22.75Z" fill="#002E54"/>
</svg>
