<svg width="24" height="24" viewBox="0 0 24 24" fill="none" xmlns="http://www.w3.org/2000/svg">
<path d="M8.23926 1.75H15.79C17.8622 1.75005 19.0405 2.09144 19.7324 2.82324C20.4329 3.56414 20.7598 4.83336 20.7598 7.04004V11.2998C20.7598 11.4336 20.6435 11.5497 20.5098 11.5498C20.3759 11.5498 20.2598 11.4337 20.2598 11.2998V7.04004C20.2598 6.12957 20.2203 5.37097 20.0996 4.75098C19.9782 4.12772 19.7668 3.60442 19.3936 3.20117C19.017 2.79458 18.5222 2.55945 17.9297 2.4248C17.3451 2.29196 16.6343 2.25002 15.79 2.25H8.23926C7.39504 2.25001 6.68425 2.29199 6.09961 2.4248C5.50694 2.55949 5.01134 2.79435 4.63477 3.20117C4.26154 3.60442 4.05106 4.12774 3.92969 4.75098C3.80898 5.37097 3.76953 6.12957 3.76953 7.04004V18.2998C3.76953 18.8621 3.83898 19.3254 3.95508 19.6768C4.01294 19.8519 4.08654 20.0127 4.17969 20.1465C4.26753 20.2726 4.39977 20.4128 4.58789 20.4854V20.4863C4.58972 20.487 4.59191 20.4876 4.59375 20.4883V20.4873C4.8745 20.594 5.19905 20.52 5.4873 20.3789C5.79749 20.227 6.15678 19.9565 6.5625 19.5244C7.02249 19.0393 7.60401 18.7979 8.19238 18.8291C8.77326 18.8605 9.34043 19.1693 9.72852 19.6895L9.73047 19.6914L10.751 21.041V21.042C10.8299 21.1462 10.812 21.3013 10.6992 21.3887C10.6469 21.4258 10.5958 21.4404 10.54 21.4404C10.46 21.4404 10.3901 21.4081 10.3389 21.3398L9.33008 19.9902H9.3291C9.04451 19.6108 8.63826 19.3621 8.17285 19.3311C7.67895 19.2992 7.25186 19.5271 6.93848 19.8535L6.93457 19.8584C6.25693 20.5828 5.69739 20.8757 5.28809 20.9824C4.98486 21.0614 4.73991 21.045 4.55762 21.002L4.39648 20.9521C4.21474 20.8806 3.94594 20.7205 3.7168 20.3506C3.48294 19.973 3.26953 19.3429 3.26953 18.2998V7.04004C3.26953 4.83336 3.59645 3.56414 4.29688 2.82324C4.98886 2.09149 6.16705 1.75003 8.23926 1.75Z" fill="#ACB9CD" stroke="#ACB9CD"/>
<path d="M8 6.75H16C16.1339 6.75 16.25 6.86614 16.25 7C16.25 7.13386 16.1339 7.25 16 7.25H8C7.86614 7.25 7.75 7.13386 7.75 7C7.75 6.86614 7.86614 6.75 8 6.75Z" fill="#ACB9CD" stroke="#ACB9CD"/>
<path d="M15 11.75H9C8.59 11.75 8.25 11.41 8.25 11C8.25 10.59 8.59 10.25 9 10.25H15C15.41 10.25 15.75 10.59 15.75 11C15.75 11.41 15.41 11.75 15 11.75Z" fill="#ACB9CD"/>
<path d="M14.8196 21.7796C14.4396 21.7796 14.0796 21.6396 13.8196 21.3796C13.5096 21.0696 13.3696 20.6196 13.4396 20.1496L13.6296 18.7996C13.6796 18.4496 13.8896 18.0296 14.1396 17.7796L17.6796 14.2396C18.1596 13.7596 18.6296 13.5096 19.1396 13.4596C19.7596 13.3996 20.3796 13.6596 20.9596 14.2396C21.5396 14.8196 21.7996 15.4296 21.7396 16.0596C21.6896 16.5596 21.4296 17.0396 20.9596 17.5196L17.4196 21.0596C17.1696 21.3096 16.7496 21.5196 16.3996 21.5696L15.0495 21.7596C14.9695 21.7696 14.8996 21.7796 14.8196 21.7796ZM19.3096 14.9496C19.2996 14.9496 19.2896 14.9496 19.2796 14.9496C19.1396 14.9596 18.9496 15.0896 18.7396 15.2996L15.1996 18.8396C15.1696 18.8696 15.1196 18.9696 15.1196 19.0096L14.9396 20.2596L16.1896 20.0796C16.2296 20.0696 16.3295 20.0196 16.3595 19.9896L19.8996 16.4496C20.1096 16.2296 20.2396 16.0496 20.2496 15.9096C20.2696 15.7096 20.0696 15.4696 19.8996 15.2996C19.7396 15.1396 19.5096 14.9496 19.3096 14.9496Z" fill="#ACB9CD"/>
<path d="M19.9206 18.2509C19.8506 18.2509 19.7806 18.2409 19.7206 18.2209C18.4006 17.8509 17.3506 16.8009 16.9806 15.4809C16.8706 15.0809 17.1006 14.6709 17.5006 14.5509C17.9006 14.4409 18.3106 14.6709 18.4206 15.0709C18.6506 15.8909 19.3006 16.5409 20.1206 16.7709C20.5206 16.8809 20.7506 17.3009 20.6406 17.7009C20.5506 18.0309 20.2506 18.2509 19.9206 18.2509Z" fill="#ACB9CD"/>
</svg>
