<svg width="20" height="20" viewBox="0 0 20 20" fill="none" xmlns="http://www.w3.org/2000/svg">
<path d="M6.49382 17.7077H13.5071C14.2807 17.7077 15.0226 17.4004 15.5695 16.8534C16.1165 16.3064 16.4238 15.5646 16.4238 14.791V10.1827C16.4241 9.40923 16.1171 8.66734 15.5705 8.12018L10.5963 3.14518C10.3255 2.87435 10.0039 2.65952 9.65002 2.51296C9.29614 2.36641 8.91685 2.29099 8.53382 2.29102H6.49382C5.72027 2.29102 4.9784 2.59831 4.43142 3.14529C3.88444 3.69227 3.57715 4.43413 3.57715 5.20768V14.791C3.57715 15.5646 3.88444 16.3064 4.43142 16.8534C4.9784 17.4004 5.72027 17.7077 6.49382 17.7077Z" stroke="#002E54" stroke-linecap="round" stroke-linejoin="round"/>
<path d="M9.74023 2.5918V7.30846C9.74023 7.75049 9.91583 8.17441 10.2284 8.48698C10.541 8.79954 10.9649 8.97513 11.4069 8.97513H16.1252" stroke="#002E54" stroke-linecap="round" stroke-linejoin="round"/>
<path d="M6.04199 13.75V12.9167M6.04199 12.9167V11.25H6.87533C7.09634 11.25 7.3083 11.3378 7.46458 11.4941C7.62086 11.6504 7.70866 11.8623 7.70866 12.0833C7.70866 12.3043 7.62086 12.5163 7.46458 12.6726C7.3083 12.8289 7.09634 12.9167 6.87533 12.9167H6.04199ZM12.7087 13.75V12.7083M12.7087 12.7083V11.25H13.9587M12.7087 12.7083H13.9587M9.37533 13.75V11.25H9.79199C10.1235 11.25 10.4415 11.3817 10.6759 11.6161C10.9103 11.8505 11.042 12.1685 11.042 12.5C11.042 12.8315 10.9103 13.1495 10.6759 13.3839C10.4415 13.6183 10.1235 13.75 9.79199 13.75H9.37533Z" stroke="#002E54" stroke-linecap="round" stroke-linejoin="round"/>
</svg>
