<svg width="20" height="20" viewBox="0 0 20 20" fill="none" xmlns="http://www.w3.org/2000/svg">
<path d="M11.8501 18.0244C10.8667 18.0244 9.47507 17.3328 8.37506 14.0244L7.77506 12.2245L5.97506 11.6244C2.67507 10.5244 1.9834 9.13278 1.9834 8.14945C1.9834 7.17445 2.67507 5.77445 5.97506 4.66612L13.0501 2.30778C14.8167 1.71612 16.2917 1.89112 17.2001 2.79112C18.1084 3.69112 18.2834 5.17445 17.6917 6.94112L15.3334 14.0161C14.2251 17.3328 12.8334 18.0244 11.8501 18.0244ZM6.36673 5.85778C4.05006 6.63278 3.22506 7.54945 3.22506 8.14945C3.22506 8.74945 4.05006 9.66612 6.36673 10.4328L8.46673 11.1328C8.65006 11.1911 8.80007 11.3411 8.8584 11.5244L9.5584 13.6244C10.3251 15.9411 11.2501 16.7661 11.8501 16.7661C12.4501 16.7661 13.3667 15.9411 14.1417 13.6244L16.5001 6.54945C16.9251 5.26612 16.8501 4.21612 16.3084 3.67445C15.7667 3.13278 14.7167 3.06612 13.4417 3.49112L6.36673 5.85778Z" fill="#002E54"/>
<path d="M8.42467 11.9993C8.26634 11.9993 8.10801 11.941 7.98301 11.816C7.74134 11.5743 7.74134 11.1743 7.98301 10.9327L10.9663 7.94102C11.208 7.69935 11.608 7.69935 11.8497 7.94102C12.0913 8.18268 12.0913 8.58268 11.8497 8.82435L8.86634 11.816C8.74967 11.941 8.58301 11.9993 8.42467 11.9993Z" fill="#002E54"/>
</svg>
