<svg width="24" height="24" viewBox="0 0 24 24" fill="none" xmlns="http://www.w3.org/2000/svg">
<path d="M12 6.94043C13.8546 6.94049 15.3701 8.44757 15.3701 10.3105C15.3701 12.1718 13.8563 13.6708 12 13.6709C10.1454 13.6709 8.63007 12.1636 8.62988 10.3008C8.62988 8.43945 10.1436 6.94043 12 6.94043ZM12 7.44043C10.4252 7.44043 9.12988 8.72303 9.12988 10.3105C9.12995 11.8966 10.4139 13.1807 12 13.1807C13.586 13.1806 14.8701 11.8966 14.8701 10.3105C14.8701 8.72307 13.5747 7.44049 12 7.44043Z" fill="#292D32" stroke="#7F94B1"/>
<path d="M12 1.75H12.0098C15.5662 1.75003 19.5855 3.83209 20.6318 8.4502C21.7906 13.5695 18.7044 17.9168 15.7842 20.7285C14.7194 21.7474 13.3539 22.2597 12 22.2598C10.7307 22.2598 9.4513 21.8098 8.41895 20.9141L8.21582 20.7285C5.29579 17.9171 2.20887 13.5605 3.37695 8.44141V8.44043C4.42306 3.8323 8.4432 1.75 12 1.75ZM12 2.25C8.94113 2.25 4.93084 3.88808 3.87207 8.54785C2.72894 13.5332 5.86965 17.7676 8.57324 20.3604C10.4968 22.2165 13.512 22.2156 15.4355 20.3594L15.4365 20.3604C18.1299 17.7679 21.2692 13.534 20.1475 8.5498V8.54785L20.0381 8.12012C18.8277 3.78737 14.9631 2.25011 12 2.25Z" fill="#292D32" stroke="#7F94B1"/>
</svg>
