<svg width="24" height="24" viewBox="0 0 24 24" fill="none" xmlns="http://www.w3.org/2000/svg">
<path d="M11.998 17.002C12.2235 17.002 12.287 17.0029 12.3291 17.0088H12.3301C12.4968 17.0322 12.6515 17.1095 12.7705 17.2285C12.889 17.3472 12.9656 17.501 12.9893 17.667V17.668C12.9954 17.7124 12.9971 17.7748 12.9971 18C12.9971 18.2252 12.9954 18.2876 12.9893 18.332C12.9658 18.4984 12.8893 18.6526 12.7705 18.7715C12.6812 18.8608 12.5716 18.9268 12.4521 18.9639L12.3301 18.9912C12.2857 18.9973 12.2224 18.998 11.998 18.998C11.7731 18.998 11.7104 18.9973 11.666 18.9912H11.667C11.5003 18.9678 11.3456 18.8905 11.2266 18.7715C11.1076 18.6524 11.0302 18.4978 11.0068 18.3311C11.0009 18.2867 11 18.2234 11 18C11 17.7766 11.0009 17.7133 11.0068 17.6689C11.0302 17.5022 11.1076 17.3476 11.2266 17.2285C11.3456 17.1095 11.5003 17.0322 11.667 17.0088L11.666 17.0078C11.7126 17.0016 11.7754 17.002 11.998 17.002ZM12 11C12.1133 11 12.1852 10.9999 12.2344 11.001L12.332 11.0068C12.4991 11.0301 12.6542 11.1073 12.7734 11.2266C12.8927 11.3458 12.9699 11.5009 12.9932 11.668V11.6689C12.9991 11.711 13 11.7724 13 12C13 12.1133 13.0001 12.1852 12.999 12.2344L12.9932 12.332C12.9699 12.4991 12.8927 12.6542 12.7734 12.7734C12.6542 12.8927 12.4991 12.9699 12.332 12.9932H12.3311C12.289 12.9991 12.2276 13 12 13C11.8867 13 11.8148 13.0001 11.7656 12.999L11.668 12.9932C11.5009 12.9699 11.3458 12.8927 11.2266 12.7734C11.1073 12.6542 11.0301 12.4991 11.0068 12.332V12.3311C11.0009 12.289 11 12.2276 11 12C11 11.8867 10.9999 11.8148 11.001 11.7656L11.0068 11.668C11.0301 11.5009 11.1073 11.3458 11.2266 11.2266C11.3458 11.1073 11.5009 11.0301 11.668 11.0068H11.6689C11.711 11.0009 11.7724 11 12 11ZM12 5C12.1133 5 12.1852 4.99992 12.2344 5.00098L12.332 5.00684C12.4991 5.03009 12.6542 5.10732 12.7734 5.22656C12.8927 5.34581 12.9699 5.50094 12.9932 5.66797V5.66895C12.9991 5.71102 13 5.77241 13 6C13 6.1133 13.0001 6.18523 12.999 6.23438L12.9932 6.33203C12.9699 6.49906 12.8927 6.65419 12.7734 6.77344C12.6542 6.89268 12.4991 6.96991 12.332 6.99316H12.3311C12.289 6.99907 12.2276 7 12 7C11.8867 7 11.8148 7.00008 11.7656 6.99902L11.668 6.99316C11.5009 6.96991 11.3458 6.89268 11.2266 6.77344C11.1073 6.65419 11.0301 6.49906 11.0068 6.33203V6.33105C11.0009 6.28898 11 6.22759 11 6C11 5.8867 10.9999 5.81477 11.001 5.76562L11.0068 5.66797C11.0301 5.50094 11.1073 5.34581 11.2266 5.22656C11.3458 5.10732 11.5009 5.03009 11.668 5.00684H11.6689C11.711 5.00093 11.7724 5 12 5Z" fill="#5F7698" stroke="#5F7698"/>
</svg>
