<svg width="24" height="24" viewBox="0 0 24 24" fill="none" xmlns="http://www.w3.org/2000/svg">
<path d="M11.9199 1.75C17.5641 1.75 22.1699 6.34645 22.1699 12C22.1699 17.6539 17.5738 22.25 11.9199 22.25C6.27576 22.25 1.66992 17.6536 1.66992 12C1.66992 6.34645 6.27576 1.75 11.9199 1.75ZM11.9199 2.25C6.54378 2.25 2.16992 6.62386 2.16992 12C2.16992 17.3761 6.54378 21.75 11.9199 21.75C17.2961 21.75 21.6699 17.3761 21.6699 12C21.6699 6.62386 17.2961 2.25 11.9199 2.25Z" stroke="#002E54"/>
<path d="M7.91992 11.75H15.9199C16.0538 11.75 16.1699 11.8661 16.1699 12C16.1699 12.1382 16.0594 12.25 15.9199 12.25H7.91992C7.78606 12.25 7.66992 12.1339 7.66992 12C7.66992 11.8661 7.78606 11.75 7.91992 11.75Z" stroke="#002E54"/>
</svg>
