<svg width="24" height="24" viewBox="0 0 24 24" fill="none" xmlns="http://www.w3.org/2000/svg">
<path d="M15.8184 3.24414C17.85 2.56373 19.3888 2.81421 20.2881 3.70508C21.1284 4.53764 21.403 5.94771 20.873 7.7959L20.7559 8.17188L17.9258 16.6621C17.2753 18.6087 16.5586 19.7285 15.9062 20.3574C15.2663 20.9744 14.6777 21.1299 14.2197 21.1299C13.7617 21.1298 13.1727 20.9749 12.5342 20.3594C11.8833 19.7319 11.1699 18.6142 10.5244 16.6729V16.6719L9.80469 14.5117L9.72559 14.2754L9.48828 14.1963L7.32812 13.4756C5.39173 12.8301 4.27679 12.1167 3.65039 11.4658C3.03581 10.8272 2.87988 10.2385 2.87988 9.78027C2.87989 9.32769 3.03511 8.73838 3.65039 8.09668C4.27723 7.44307 5.39306 6.72446 7.3291 6.07422L7.32812 6.07324L15.8184 3.24512V3.24414ZM18.2119 3.36621C17.543 3.32351 16.7791 3.44667 15.9717 3.71582L7.48145 6.55566C6.05751 7.03202 5.05441 7.56434 4.39746 8.0957C3.7567 8.6141 3.37014 9.19696 3.37012 9.78027C3.37012 10.3638 3.75694 10.9473 4.39844 11.4648C5.05553 11.9949 6.05811 12.523 7.48145 12.9941V12.9951L10.002 13.835L10.0078 13.8369C10.0731 13.8577 10.1324 13.9162 10.1533 13.9814L10.1553 13.9883L10.9951 16.5088C11.4665 17.9329 11.9983 18.9355 12.5312 19.5928C13.0514 20.2342 13.6371 20.62 14.2197 20.6201C14.8032 20.6201 15.3868 20.2329 15.9053 19.5918C16.3701 19.017 16.8347 18.1778 17.2627 17.0234L17.4443 16.5088L20.2744 8.01855V8.01758C20.5437 7.20457 20.6647 6.43795 20.6191 5.76758C20.5736 5.0977 20.3585 4.49141 19.9238 4.05664C19.488 3.62084 18.8803 3.4089 18.2119 3.36621Z" fill="#292D32" stroke="#5F7698"/>
<path d="M13.5137 9.88379C13.6084 9.78909 13.7715 9.78906 13.8662 9.88379C13.9608 9.97853 13.9609 10.1416 13.8662 10.2363V10.2373L10.2861 13.8271L10.2744 13.8389C10.2442 13.8713 10.1847 13.9004 10.1094 13.9004C10.045 13.9003 9.98477 13.8773 9.93359 13.8262C9.83888 13.7314 9.83886 13.5684 9.93359 13.4736V13.4727L13.5127 9.88281L13.5137 9.88379Z" fill="#292D32" stroke="#5F7698"/>
</svg>
