<svg width="24" height="24" viewBox="0 0 24 24" fill="none" xmlns="http://www.w3.org/2000/svg">
<path d="M7 5.75977H17C19.1121 5.75977 20.4272 6.23896 21.1777 7.07324C22.0626 8.06017 22.0619 9.41003 21.9531 10.458L21.9521 10.4629L21.2031 18.4473C21.0972 19.4585 20.8453 20.3776 20.1514 21.0547C19.4608 21.7284 18.2404 22.25 16 22.25H8C5.75975 22.25 4.53929 21.7284 3.84863 21.0557C3.15477 20.3797 2.90276 19.4629 2.79688 18.457L2.04785 10.4531V10.4473L2.01367 10.0459C1.95268 9.07931 2.04716 7.93705 2.82129 7.07324L2.82227 7.07422C3.58224 6.22997 4.89635 5.7598 7 5.75977ZM7 6.25C5.28907 6.25003 3.93357 6.57513 3.19043 7.40332C2.55461 8.10402 2.40875 9.11659 2.54199 10.3955V10.3965L3.29199 18.4062L3.29297 18.4131C3.37901 19.2127 3.54032 20.1073 4.26953 20.7676C4.98981 21.4196 6.15721 21.75 8 21.75H16C17.8383 21.75 19.0061 21.4197 19.7275 20.7666C20.4575 20.1055 20.6209 19.209 20.707 18.4033L20.708 18.3965L21.458 10.4111C21.5838 9.20095 21.4642 8.23373 20.9238 7.53906L20.8105 7.40332C20.0674 6.5749 18.7112 6.25 17 6.25H7Z" fill="#ACB9CD" stroke="#ACB9CD"/>
<path d="M11.2002 1.75H12.7998C14.6899 1.75 15.4724 2.27077 15.8359 2.83594C16.2357 3.45761 16.25 4.28554 16.25 5.2002V6C16.25 6.13386 16.1339 6.25 16 6.25C15.8661 6.25 15.75 6.13386 15.75 6V5.2002C15.75 4.76561 15.7508 4.35572 15.708 4.00586C15.6647 3.65184 15.5707 3.29687 15.3369 2.99902C15.0971 2.69361 14.7583 2.50849 14.3438 2.39941C13.9376 2.29258 13.4277 2.25 12.7998 2.25H11.2002C10.5723 2.25 10.0624 2.29258 9.65625 2.39941C9.24171 2.50849 8.90292 2.69361 8.66309 2.99902C8.42926 3.29687 8.33527 3.65184 8.29199 4.00586C8.24925 4.35572 8.25 4.76561 8.25 5.2002V6C8.25 6.13386 8.13386 6.25 8 6.25C7.86614 6.25 7.75 6.13386 7.75 6V5.2002C7.75 4.28554 7.76434 3.45761 8.16406 2.83594C8.52765 2.27077 9.31009 1.75 11.2002 1.75Z" fill="#ACB9CD" stroke="#ACB9CD"/>
<path d="M12 16.75C9.25 16.75 9.25 15.05 9.25 14.03V13C9.25 11.59 9.59 11.25 11 11.25H13C14.41 11.25 14.75 11.59 14.75 13V14C14.75 15.04 14.75 16.75 12 16.75ZM10.75 12.75C10.75 12.83 10.75 12.92 10.75 13V14.03C10.75 15.06 10.75 15.25 12 15.25C13.25 15.25 13.25 15.09 13.25 14.02V13C13.25 12.92 13.25 12.83 13.25 12.75C13.17 12.75 13.08 12.75 13 12.75H11C10.92 12.75 10.83 12.75 10.75 12.75Z" fill="#ACB9CD"/>
<path d="M13.9995 14.7702C13.6295 14.7702 13.2995 14.4902 13.2595 14.1102C13.2095 13.7002 13.4995 13.3202 13.9095 13.2702C16.5495 12.9402 19.0795 11.9402 21.2095 10.3902C21.5395 10.1402 22.0095 10.2202 22.2595 10.5602C22.4995 10.8902 22.4295 11.3602 22.0895 11.6102C19.7495 13.3102 16.9895 14.4002 14.0895 14.7702C14.0595 14.7702 14.0295 14.7702 13.9995 14.7702Z" fill="#ACB9CD"/>
<path d="M9.99975 14.7809C9.96975 14.7809 9.93975 14.7809 9.90975 14.7809C7.16975 14.4709 4.49975 13.4709 2.18975 11.8909C1.84975 11.6609 1.75975 11.1909 1.98975 10.8509C2.21975 10.5109 2.68975 10.4209 3.02975 10.6509C5.13975 12.0909 7.56975 13.0009 10.0697 13.2909C10.4797 13.3409 10.7797 13.7109 10.7297 14.1209C10.6997 14.5009 10.3797 14.7809 9.99975 14.7809Z" fill="#ACB9CD"/>
</svg>
