<svg width="14" height="14" viewBox="0 0 14 14" fill="none" xmlns="http://www.w3.org/2000/svg">
<mask id="path-1-inside-1_7479_2613" fill="white">
<path d="M7.00033 9.77067C6.76699 9.77067 6.53366 9.75317 6.31199 9.71233C5.07533 9.5315 3.94949 8.81984 3.23783 7.764C2.74199 7.01734 2.47949 6.14817 2.47949 5.24984C2.47949 2.759 4.50949 0.729004 7.00033 0.729004C9.49116 0.729004 11.5212 2.759 11.5212 5.24984C11.5212 6.14817 11.2587 7.01734 10.7628 7.764C10.0453 8.82567 8.91949 9.53151 7.67116 9.71817C7.46699 9.75317 7.23366 9.77067 7.00033 9.77067ZM7.00033 1.604C4.98783 1.604 3.35449 3.23734 3.35449 5.24984C3.35449 5.979 3.56449 6.679 3.96116 7.274C4.53866 8.12567 5.44283 8.69734 6.44616 8.84317C6.81949 8.90734 7.18699 8.90734 7.53116 8.84317C8.55199 8.69734 9.45616 8.11983 10.0337 7.26817C10.4303 6.67317 10.6403 5.97316 10.6403 5.244C10.6462 3.23733 9.01283 1.604 7.00033 1.604Z"/>
</mask>
<path d="M7.00033 9.77067C6.76699 9.77067 6.53366 9.75317 6.31199 9.71233C5.07533 9.5315 3.94949 8.81984 3.23783 7.764C2.74199 7.01734 2.47949 6.14817 2.47949 5.24984C2.47949 2.759 4.50949 0.729004 7.00033 0.729004C9.49116 0.729004 11.5212 2.759 11.5212 5.24984C11.5212 6.14817 11.2587 7.01734 10.7628 7.764C10.0453 8.82567 8.91949 9.53151 7.67116 9.71817C7.46699 9.75317 7.23366 9.77067 7.00033 9.77067ZM7.00033 1.604C4.98783 1.604 3.35449 3.23734 3.35449 5.24984C3.35449 5.979 3.56449 6.679 3.96116 7.274C4.53866 8.12567 5.44283 8.69734 6.44616 8.84317C6.81949 8.90734 7.18699 8.90734 7.53116 8.84317C8.55199 8.69734 9.45616 8.11983 10.0337 7.26817C10.4303 6.67317 10.6403 5.97316 10.6403 5.244C10.6462 3.23733 9.01283 1.604 7.00033 1.604Z" fill="white"/>
<path d="M6.31199 9.71233L6.49315 8.72888L6.47497 8.72553L6.45668 8.72286L6.31199 9.71233ZM3.23783 7.764L2.40476 8.31721L2.40861 8.32292L3.23783 7.764ZM10.7628 7.764L11.5914 8.32396L11.5959 8.3172L10.7628 7.764ZM7.67116 9.71817L7.52327 8.72917L7.51271 8.73075L7.50219 8.73255L7.67116 9.71817ZM3.96116 7.274L3.12908 7.82872L3.13349 7.83523L3.96116 7.274ZM6.44616 8.84317L6.61555 7.85762L6.6028 7.85543L6.59 7.85357L6.44616 8.84317ZM7.53116 8.84317L7.38974 7.85322L7.36873 7.85622L7.34788 7.86011L7.53116 8.84317ZM10.0337 7.26817L10.8613 7.82941L10.8657 7.82287L10.0337 7.26817ZM10.6403 5.244L9.64033 5.24109V5.244H10.6403ZM7.00033 9.77067V8.77067C6.81514 8.77067 6.64382 8.75663 6.49315 8.72888L6.31199 9.71233L6.13083 10.6958C6.4235 10.7497 6.71885 10.7707 7.00033 10.7707V9.77067ZM6.31199 9.71233L6.45668 8.72286C5.50311 8.58342 4.62388 8.0312 4.06705 7.20508L3.23783 7.764L2.40861 8.32292C3.27511 9.60847 4.64754 10.4796 6.1673 10.7018L6.31199 9.71233ZM3.23783 7.764L4.07088 7.2108C3.68396 6.62816 3.47949 5.95144 3.47949 5.24984H2.47949H1.47949C1.47949 6.3449 1.80002 7.40651 2.40478 8.3172L3.23783 7.764ZM2.47949 5.24984H3.47949C3.47949 3.31129 5.06178 1.729 7.00033 1.729V0.729004V-0.270996C3.95721 -0.270996 1.47949 2.20672 1.47949 5.24984H2.47949ZM7.00033 0.729004V1.729C8.93887 1.729 10.5212 3.31129 10.5212 5.24984H11.5212H12.5212C12.5212 2.20672 10.0434 -0.270996 7.00033 -0.270996V0.729004ZM11.5212 5.24984H10.5212C10.5212 5.95145 10.3167 6.62816 9.92978 7.2108L10.7628 7.764L11.5959 8.3172C12.2006 7.40651 12.5212 6.3449 12.5212 5.24984H11.5212ZM10.7628 7.764L9.93429 7.20406C9.3734 8.034 8.49432 8.58397 7.52327 8.72917L7.67116 9.71817L7.81905 10.7072C9.34467 10.479 10.7173 9.61734 11.5914 8.32394L10.7628 7.764ZM7.67116 9.71817L7.50219 8.73255C7.36345 8.75634 7.1877 8.77067 7.00033 8.77067V9.77067V10.7707C7.27962 10.7707 7.57053 10.75 7.84012 10.7038L7.67116 9.71817ZM7.00033 1.604V0.604004C4.43554 0.604004 2.35449 2.68505 2.35449 5.24984H3.35449H4.35449C4.35449 3.78962 5.54011 2.604 7.00033 2.604V1.604ZM3.35449 5.24984H2.35449C2.35449 6.17259 2.62082 7.06627 3.12911 7.8287L3.96116 7.274L4.79321 6.7193C4.50816 6.29173 4.35449 5.78541 4.35449 5.24984H3.35449ZM3.96116 7.274L3.13349 7.83523C3.86557 8.91486 5.01562 9.64575 6.30232 9.83277L6.44616 8.84317L6.59 7.85357C5.87004 7.74893 5.21174 7.33648 4.78882 6.71278L3.96116 7.274ZM6.44616 8.84317L6.27677 9.82872C6.75727 9.91131 7.24458 9.91383 7.71444 9.82623L7.53116 8.84317L7.34788 7.86011C7.1294 7.90084 6.88171 7.90337 6.61555 7.85762L6.44616 8.84317ZM7.53116 8.84317L7.67258 9.83312C8.97966 9.6464 10.1299 8.90808 10.8613 7.82939L10.0337 7.26817L9.206 6.70694C8.78243 7.33159 8.12432 7.74828 7.38974 7.85322L7.53116 8.84317ZM10.0337 7.26817L10.8657 7.82287C11.374 7.06043 11.6403 6.16675 11.6403 5.244H10.6403H9.64033C9.64033 5.77958 9.48665 6.2859 9.20161 6.71347L10.0337 7.26817ZM10.6403 5.244L11.6403 5.2469C11.6478 2.68408 9.5635 0.604004 7.00033 0.604004V1.604V2.604C8.46215 2.604 9.64455 3.79059 9.64033 5.24109L10.6403 5.244Z" fill="white" mask="url(#path-1-inside-1_7479_2613)"/>
<mask id="path-3-inside-2_7479_2613" fill="white">
<path d="M3.77426 13.1776C3.6926 13.1776 3.61676 13.166 3.5351 13.1485C3.15593 13.061 2.86426 12.7693 2.77676 12.3901L2.5726 11.5326C2.56093 11.4801 2.5201 11.4393 2.46176 11.4218L1.49926 11.1943C1.1376 11.1068 0.851764 10.8385 0.752597 10.4826C0.65343 10.1268 0.752597 9.74181 1.0151 9.47931L3.2901 7.20431C3.38343 7.11098 3.51176 7.06431 3.6401 7.07598C3.76843 7.08765 3.8851 7.15764 3.96093 7.26847C4.53843 8.12014 5.4426 8.69765 6.45176 8.84348C6.8251 8.90765 7.1926 8.90765 7.53676 8.84348C8.5576 8.69765 9.46176 8.12014 10.0393 7.26847C10.1093 7.15764 10.2318 7.08765 10.3601 7.07598C10.4884 7.06431 10.6168 7.11098 10.7101 7.20431L12.9851 9.47931C13.2476 9.74181 13.3468 10.1268 13.2476 10.4826C13.1484 10.8385 12.8568 11.1126 12.5009 11.1943L11.5384 11.4218C11.4859 11.4335 11.4451 11.4743 11.4276 11.5326L11.2234 12.3901C11.1359 12.7693 10.8443 13.061 10.4651 13.1485C10.0859 13.2418 9.6951 13.1076 9.4501 12.8101L7.0001 9.99265L4.5501 12.816C4.35176 13.0493 4.07176 13.1776 3.77426 13.1776ZM3.5526 8.18431L1.63343 10.1035C1.58093 10.156 1.58676 10.2143 1.59843 10.2493C1.60426 10.2785 1.63343 10.3368 1.70343 10.3485L2.66593 10.576C3.0451 10.6635 3.33676 10.9551 3.42426 11.3343L3.62843 12.1918C3.64593 12.2676 3.70426 12.291 3.73926 12.3026C3.77426 12.3085 3.8326 12.3143 3.8851 12.256L6.11926 9.68348C5.1276 9.49098 4.2176 8.96014 3.5526 8.18431ZM7.88093 9.67764L10.1151 12.2443C10.1676 12.3085 10.2318 12.3085 10.2668 12.2968C10.3018 12.291 10.3543 12.2618 10.3776 12.186L10.5818 11.3285C10.6693 10.9493 10.9609 10.6576 11.3401 10.5701L12.3026 10.3427C12.3726 10.3252 12.4018 10.2726 12.4076 10.2435C12.4193 10.2143 12.4251 10.1501 12.3726 10.0976L10.4534 8.17847C9.7826 8.9543 8.87843 9.48514 7.88093 9.67764Z"/>
</mask>
<path d="M3.77426 13.1776C3.6926 13.1776 3.61676 13.166 3.5351 13.1485C3.15593 13.061 2.86426 12.7693 2.77676 12.3901L2.5726 11.5326C2.56093 11.4801 2.5201 11.4393 2.46176 11.4218L1.49926 11.1943C1.1376 11.1068 0.851764 10.8385 0.752597 10.4826C0.65343 10.1268 0.752597 9.74181 1.0151 9.47931L3.2901 7.20431C3.38343 7.11098 3.51176 7.06431 3.6401 7.07598C3.76843 7.08765 3.8851 7.15764 3.96093 7.26847C4.53843 8.12014 5.4426 8.69765 6.45176 8.84348C6.8251 8.90765 7.1926 8.90765 7.53676 8.84348C8.5576 8.69765 9.46176 8.12014 10.0393 7.26847C10.1093 7.15764 10.2318 7.08765 10.3601 7.07598C10.4884 7.06431 10.6168 7.11098 10.7101 7.20431L12.9851 9.47931C13.2476 9.74181 13.3468 10.1268 13.2476 10.4826C13.1484 10.8385 12.8568 11.1126 12.5009 11.1943L11.5384 11.4218C11.4859 11.4335 11.4451 11.4743 11.4276 11.5326L11.2234 12.3901C11.1359 12.7693 10.8443 13.061 10.4651 13.1485C10.0859 13.2418 9.6951 13.1076 9.4501 12.8101L7.0001 9.99265L4.5501 12.816C4.35176 13.0493 4.07176 13.1776 3.77426 13.1776ZM3.5526 8.18431L1.63343 10.1035C1.58093 10.156 1.58676 10.2143 1.59843 10.2493C1.60426 10.2785 1.63343 10.3368 1.70343 10.3485L2.66593 10.576C3.0451 10.6635 3.33676 10.9551 3.42426 11.3343L3.62843 12.1918C3.64593 12.2676 3.70426 12.291 3.73926 12.3026C3.77426 12.3085 3.8326 12.3143 3.8851 12.256L6.11926 9.68348C5.1276 9.49098 4.2176 8.96014 3.5526 8.18431ZM7.88093 9.67764L10.1151 12.2443C10.1676 12.3085 10.2318 12.3085 10.2668 12.2968C10.3018 12.291 10.3543 12.2618 10.3776 12.186L10.5818 11.3285C10.6693 10.9493 10.9609 10.6576 11.3401 10.5701L12.3026 10.3427C12.3726 10.3252 12.4018 10.2726 12.4076 10.2435C12.4193 10.2143 12.4251 10.1501 12.3726 10.0976L10.4534 8.17847C9.7826 8.9543 8.87843 9.48514 7.88093 9.67764Z" fill="white"/>
<path d="M3.5351 13.1485L3.31024 14.1229L3.31789 14.1246L3.32557 14.1263L3.5351 13.1485ZM2.77676 12.3901L3.75118 12.1653L3.74957 12.1585L2.77676 12.3901ZM2.5726 11.5326L1.59641 11.7496L1.59804 11.7569L1.59979 11.7643L2.5726 11.5326ZM2.46176 11.4218L2.74911 10.464L2.72067 10.4554L2.69178 10.4486L2.46176 11.4218ZM1.49926 11.1943L1.26411 12.1663L1.26925 12.1675L1.49926 11.1943ZM1.0151 9.47931L0.307991 8.7722L0.30799 8.7722L1.0151 9.47931ZM3.2901 7.20431L3.9972 7.91142L3.9972 7.91142L3.2901 7.20431ZM3.96093 7.26847L4.7886 6.70724L4.78624 6.70379L3.96093 7.26847ZM6.45176 8.84348L6.62116 7.85793L6.608 7.85567L6.59479 7.85376L6.45176 8.84348ZM7.53676 8.84348L7.39534 7.85353L7.37434 7.85653L7.35348 7.86042L7.53676 8.84348ZM10.0393 7.26847L10.8669 7.8297L10.8761 7.81623L10.8848 7.80247L10.0393 7.26847ZM10.7101 7.20431L10.003 7.91142L10.003 7.91142L10.7101 7.20431ZM12.9851 9.47931L13.6922 8.7722L13.6922 8.7722L12.9851 9.47931ZM12.5009 11.1943L12.2772 10.2196L12.2709 10.2211L12.5009 11.1943ZM11.5384 11.4218L11.7554 12.3981L11.7684 12.395L11.5384 11.4218ZM11.4276 11.5326L10.4698 11.2453L10.4615 11.2729L10.4548 11.301L11.4276 11.5326ZM11.2234 12.3901L10.2506 12.1585L10.249 12.1653L11.2234 12.3901ZM10.4651 13.1485L10.2402 12.1741L10.2331 12.1757L10.2261 12.1775L10.4651 13.1485ZM9.4501 12.8101L10.222 12.1744L10.2135 12.1641L10.2047 12.154L9.4501 12.8101ZM7.0001 9.99265L7.7547 9.33647L6.99932 8.46778L6.24482 9.33724L7.0001 9.99265ZM4.5501 12.816L3.79478 12.1605L3.78816 12.1683L4.5501 12.816ZM3.5526 8.18431L4.31185 7.53352L3.60908 6.71361L2.84549 7.4772L3.5526 8.18431ZM1.63343 10.1035L2.34054 10.8106L2.34054 10.8106L1.63343 10.1035ZM1.59843 10.2493L2.57901 10.0532L2.5668 9.99215L2.54711 9.93309L1.59843 10.2493ZM1.70343 10.3485L1.93346 9.37529L1.90087 9.36758L1.86783 9.36208L1.70343 10.3485ZM2.66593 10.576L2.43589 11.5492L2.44107 11.5504L2.66593 10.576ZM3.42426 11.3343L2.44985 11.5592L2.45146 11.5659L3.42426 11.3343ZM3.62843 12.1918L4.60284 11.9669L4.60124 11.9602L3.62843 12.1918ZM3.73926 12.3026L3.42304 13.2513L3.49747 13.2761L3.57486 13.289L3.73926 12.3026ZM3.8851 12.256L4.62839 12.9249L4.63431 12.9184L4.64011 12.9117L3.8851 12.256ZM6.11926 9.68348L6.87427 10.3392L8.00973 9.03179L6.30982 8.70181L6.11926 9.68348ZM7.88093 9.67764L7.69144 8.69576L5.98681 9.02472L7.12666 10.3342L7.88093 9.67764ZM10.1151 12.2443L10.8891 11.6111L10.8794 11.5993L10.8694 11.5877L10.1151 12.2443ZM10.2668 12.2968L10.1024 11.3104L10.025 11.3233L9.95054 11.3481L10.2668 12.2968ZM10.3776 12.186L11.3334 12.4801L11.3429 12.4491L11.3504 12.4176L10.3776 12.186ZM10.5818 11.3285L11.5546 11.5601L11.5562 11.5533L10.5818 11.3285ZM11.3401 10.5701L11.565 11.5445L11.5701 11.5433L11.3401 10.5701ZM12.3026 10.3427L12.5326 11.3159L12.5451 11.3128L12.3026 10.3427ZM12.4076 10.2435L11.4791 9.87209L11.445 9.95733L11.427 10.0474L12.4076 10.2435ZM12.3726 10.0976L11.6655 10.8047L11.6655 10.8047L12.3726 10.0976ZM10.4534 8.17847L11.1605 7.47137L10.4002 6.71107L9.69699 7.52441L10.4534 8.17847ZM3.77426 13.1776V12.1776C3.78187 12.1776 3.78574 12.1782 3.78319 12.1779C3.77949 12.1774 3.76859 12.1758 3.74463 12.1707L3.5351 13.1485L3.32557 14.1263C3.44217 14.1513 3.59434 14.1776 3.77426 14.1776V13.1776ZM3.5351 13.1485L3.75996 12.1741C3.75665 12.1733 3.75509 12.1725 3.7546 12.1722C3.75402 12.1719 3.75378 12.1717 3.75367 12.1716C3.75356 12.1715 3.75333 12.1712 3.75301 12.1706C3.75273 12.1702 3.75192 12.1686 3.75115 12.1653L2.77676 12.3901L1.80237 12.615C1.97585 13.3668 2.55845 13.9494 3.31024 14.1229L3.5351 13.1485ZM2.77676 12.3901L3.74957 12.1585L3.5454 11.301L2.5726 11.5326L1.59979 11.7643L1.80396 12.6218L2.77676 12.3901ZM2.5726 11.5326L3.54878 11.3157C3.44675 10.8566 3.09873 10.5689 2.74911 10.464L2.46176 11.4218L2.17442 12.3796C1.94146 12.3097 1.67511 12.1037 1.59641 11.7496L2.5726 11.5326ZM2.46176 11.4218L2.69178 10.4486L1.72928 10.2211L1.49926 11.1943L1.26925 12.1675L2.23175 12.395L2.46176 11.4218ZM1.49926 11.1943L1.73441 10.2224C1.72261 10.2195 1.7173 10.2151 1.71592 10.2138C1.71517 10.2131 1.71517 10.2129 1.71548 10.2134C1.71585 10.214 1.71597 10.2145 1.71589 10.2142L0.752597 10.4826L-0.210694 10.7511C-0.0105769 11.4692 0.563614 11.9968 1.26411 12.1663L1.49926 11.1943ZM0.752597 10.4826L1.71589 10.2142C1.7146 10.2096 1.71438 10.204 1.71593 10.1981C1.71742 10.1923 1.71988 10.1887 1.7222 10.1864L1.0151 9.47931L0.30799 8.7722C-0.2118 9.29199 -0.405916 10.0506 -0.210694 10.7511L0.752597 10.4826ZM1.0151 9.47931L1.7222 10.1864L3.9972 7.91142L3.2901 7.20431L2.58299 6.49721L0.307991 8.7722L1.0151 9.47931ZM3.2901 7.20431L3.9972 7.91142C3.88419 8.02443 3.7217 8.08752 3.54956 8.07187L3.6401 7.07598L3.73063 6.08009C3.30183 6.04111 2.88267 6.19753 2.58299 6.49721L3.2901 7.20431ZM3.6401 7.07598L3.54956 8.07187C3.36685 8.05526 3.22003 7.95651 3.13562 7.83316L3.96093 7.26847L4.78624 6.70379C4.55017 6.35876 4.17001 6.12003 3.73063 6.08009L3.6401 7.07598ZM3.96093 7.26847L3.13327 7.8297C3.86378 8.90701 5.0129 9.64594 6.30874 9.8332L6.45176 8.84348L6.59479 7.85376C5.8723 7.74935 5.21309 7.33327 4.78859 6.70725L3.96093 7.26847ZM6.45176 8.84348L6.28237 9.82903C6.76288 9.91162 7.25019 9.91414 7.72005 9.82654L7.53676 8.84348L7.35348 7.86042C7.13501 7.90115 6.88732 7.90368 6.62116 7.85793L6.45176 8.84348ZM7.53676 8.84348L7.67818 9.83343C8.98527 9.6467 10.1355 8.90838 10.8669 7.8297L10.0393 7.26847L9.2116 6.70725C8.78804 7.3319 8.12993 7.74859 7.39534 7.85353L7.53676 8.84348ZM10.0393 7.26847L10.8848 7.80247C10.7773 7.9726 10.6103 8.05736 10.4506 8.07187L10.3601 7.07598L10.2696 6.08009C9.85322 6.11794 9.44123 6.34268 9.19377 6.73448L10.0393 7.26847ZM10.3601 7.07598L10.4506 8.07187C10.2785 8.08752 10.116 8.02443 10.003 7.91142L10.7101 7.20431L11.4172 6.49721C11.1175 6.19753 10.6984 6.04111 10.2696 6.08009L10.3601 7.07598ZM10.7101 7.20431L10.003 7.91142L12.278 10.1864L12.9851 9.47931L13.6922 8.7722L11.4172 6.49721L10.7101 7.20431ZM12.9851 9.47931L12.278 10.1864C12.2803 10.1887 12.2828 10.1923 12.2843 10.1981C12.2858 10.204 12.2856 10.2096 12.2843 10.2142L13.2476 10.4826L14.2109 10.7511C14.4061 10.0506 14.212 9.292 13.6922 8.7722L12.9851 9.47931ZM13.2476 10.4826L12.2843 10.2142C12.2851 10.2113 12.2855 10.2127 12.282 10.2161C12.2782 10.2197 12.2756 10.22 12.2772 10.2197L12.5009 11.1943L12.7246 12.169C13.4335 12.0063 14.0121 11.4643 14.2109 10.7511L13.2476 10.4826ZM12.5009 11.1943L12.2709 10.2211L11.3084 10.4486L11.5384 11.4218L11.7684 12.395L12.7309 12.1675L12.5009 11.1943ZM11.5384 11.4218L11.3215 10.4456C10.8623 10.5477 10.5746 10.8957 10.4698 11.2453L11.4276 11.5326L12.3854 11.82C12.3155 12.0529 12.1095 12.3193 11.7554 12.398L11.5384 11.4218ZM11.4276 11.5326L10.4548 11.301L10.2506 12.1585L11.2234 12.3901L12.1962 12.6218L12.4004 11.7643L11.4276 11.5326ZM11.2234 12.3901L10.249 12.1653C10.2483 12.1686 10.2475 12.1702 10.2472 12.1706C10.2469 12.1712 10.2466 12.1715 10.2465 12.1716C10.2464 12.1717 10.2462 12.1719 10.2456 12.1722C10.2451 12.1725 10.2435 12.1733 10.2402 12.1741L10.4651 13.1485L10.69 14.1229C11.4417 13.9494 12.0243 13.3668 12.1978 12.615L11.2234 12.3901ZM10.4651 13.1485L10.2261 12.1775C10.2243 12.1779 10.224 12.1778 10.2247 12.1778C10.2252 12.1778 10.2257 12.1779 10.2259 12.178C10.2266 12.1782 10.225 12.178 10.222 12.1744L9.4501 12.8101L8.67817 13.4458C9.16363 14.0353 9.94544 14.3062 10.7041 14.1195L10.4651 13.1485ZM9.4501 12.8101L10.2047 12.154L7.7547 9.33647L7.0001 9.99265L6.24549 10.6488L8.69549 13.4663L9.4501 12.8101ZM7.0001 9.99265L6.24482 9.33724L3.79482 12.1606L4.5501 12.816L5.30537 13.4714L7.75537 10.6481L7.0001 9.99265ZM4.5501 12.816L3.78816 12.1683C3.78457 12.1726 3.78191 12.1748 3.78055 12.1758C3.77918 12.1769 3.77847 12.1772 3.77841 12.1772C3.77834 12.1773 3.77829 12.1773 3.77803 12.1773C3.77778 12.1774 3.77662 12.1776 3.77426 12.1776V13.1776V14.1776C4.36712 14.1776 4.92499 13.919 5.31204 13.4636L4.5501 12.816ZM3.5526 8.18431L2.84549 7.4772L0.926323 9.39638L1.63343 10.1035L2.34054 10.8106L4.2597 8.89142L3.5526 8.18431ZM1.63343 10.1035L0.926324 9.39638C0.513702 9.809 0.566056 10.3145 0.649747 10.5655L1.59843 10.2493L2.54711 9.93309C2.57585 10.0193 2.60581 10.1564 2.58182 10.3244C2.55541 10.5093 2.46998 10.6811 2.34054 10.8106L1.63343 10.1035ZM1.59843 10.2493L0.61785 10.4454C0.672627 10.7193 0.916853 11.2312 1.53903 11.3349L1.70343 10.3485L1.86783 9.36208C2.09667 9.40022 2.27388 9.52291 2.38807 9.65694C2.48766 9.77384 2.55036 9.90992 2.57901 10.0532L1.59843 10.2493ZM1.70343 10.3485L1.4734 11.3217L2.4359 11.5492L2.66593 10.576L2.89596 9.6028L1.93346 9.37529L1.70343 10.3485ZM2.66593 10.576L2.44107 11.5504C2.44438 11.5511 2.44595 11.552 2.44644 11.5522C2.44702 11.5525 2.44727 11.5528 2.44737 11.5529C2.44747 11.553 2.4477 11.5532 2.44802 11.5538C2.44829 11.5543 2.44911 11.5559 2.44987 11.5592L3.42426 11.3343L4.39865 11.1094C4.22517 10.3577 3.64255 9.77507 2.89079 9.60159L2.66593 10.576ZM3.42426 11.3343L2.45146 11.5659L2.65562 12.4234L3.62843 12.1918L4.60124 11.9602L4.39707 11.1027L3.42426 11.3343ZM3.62843 12.1918L2.65404 12.4167C2.79737 13.0378 3.32595 13.219 3.42304 13.2513L3.73926 12.3026L4.05549 11.354C4.06406 11.3568 4.17808 11.3921 4.29869 11.4878C4.44035 11.6002 4.55653 11.7664 4.60282 11.9669L3.62843 12.1918ZM3.73926 12.3026L3.57486 13.289C3.7124 13.312 4.22427 13.374 4.62839 12.9249L3.8851 12.256L3.1418 11.587C3.2631 11.4522 3.42899 11.3589 3.60957 11.3228C3.7666 11.2914 3.88929 11.3139 3.90366 11.3162L3.73926 12.3026ZM3.8851 12.256L4.64011 12.9117L6.87427 10.3392L6.11926 9.68348L5.36425 9.02777L3.13009 11.6003L3.8851 12.256ZM6.11926 9.68348L6.30982 8.70181C5.54175 8.55271 4.83146 8.13972 4.31185 7.53352L3.5526 8.18431L2.79334 8.8351C3.60374 9.78056 4.71344 10.4293 5.9287 10.6652L6.11926 9.68348ZM7.88093 9.67764L7.12666 10.3342L9.36082 12.9009L10.1151 12.2443L10.8694 11.5877L8.6352 9.02108L7.88093 9.67764ZM10.1151 12.2443L9.34114 12.8775C9.69916 13.3151 10.2226 13.3656 10.583 13.2455L10.2668 12.2968L9.95054 11.3481C10.0944 11.3002 10.2614 11.2854 10.4338 11.3273C10.6224 11.3732 10.7805 11.4784 10.8891 11.6111L10.1151 12.2443ZM10.2668 12.2968L10.4312 13.2832C10.8239 13.2177 11.194 12.9331 11.3334 12.4801L10.3776 12.186L9.42182 11.8919C9.51455 11.5905 9.77967 11.3642 10.1024 11.3104L10.2668 12.2968ZM10.3776 12.186L11.3504 12.4176L11.5546 11.5601L10.5818 11.3285L9.60896 11.0969L9.40479 11.9544L10.3776 12.186ZM10.5818 11.3285L11.5562 11.5533C11.5569 11.55 11.5577 11.5485 11.558 11.548C11.5583 11.5474 11.5586 11.5471 11.5587 11.547C11.5588 11.5469 11.559 11.5467 11.5596 11.5464C11.5601 11.5461 11.5617 11.5453 11.565 11.5445L11.3401 10.5701L11.1152 9.59575C10.3635 9.76924 9.78085 10.3519 9.60737 11.1036L10.5818 11.3285ZM11.3401 10.5701L11.5701 11.5433L12.5326 11.3158L12.3026 10.3427L12.0726 9.36946L11.1101 9.59695L11.3401 10.5701ZM12.3026 10.3427L12.5451 11.3128C13.0456 11.1877 13.3185 10.7881 13.3882 10.4396L12.4076 10.2435L11.427 10.0474C11.4851 9.75716 11.6996 9.46262 12.0601 9.37251L12.3026 10.3427ZM12.4076 10.2435L13.3361 10.6149C13.4562 10.3144 13.4842 9.79506 13.0797 9.39054L12.3726 10.0976L11.6655 10.8047C11.5242 10.6635 11.4472 10.4864 11.4237 10.3169C11.4028 10.1668 11.422 10.0149 11.4791 9.87209L12.4076 10.2435ZM12.3726 10.0976L13.0797 9.39054L11.1605 7.47137L10.4534 8.17847L9.74632 8.88558L11.6655 10.8047L12.3726 10.0976ZM10.4534 8.17847L9.69699 7.52441C9.16904 8.13499 8.46267 8.54693 7.69144 8.69576L7.88093 9.67764L8.07042 10.6595C9.29419 10.4234 10.3961 9.77362 11.2099 8.83254L10.4534 8.17847Z" fill="white" mask="url(#path-3-inside-2_7479_2613)"/>
<mask id="path-5-inside-3_7479_2613" fill="white">
<path d="M8.1025 7.51932C7.95083 7.51932 7.77 7.47848 7.55417 7.35015L7 7.01764L6.44583 7.34431C5.93833 7.64764 5.60583 7.47264 5.48333 7.38514C5.36083 7.29764 5.09833 7.03515 5.2325 6.45765L5.3725 5.85681L4.90583 5.42514C4.64917 5.16847 4.55583 4.85931 4.64333 4.57931C4.73083 4.29931 4.9875 4.10097 5.34917 4.04264L5.97333 3.93764L6.27083 3.28431C6.44 2.95181 6.7025 2.76514 7 2.76514C7.2975 2.76514 7.56583 2.95765 7.72917 3.29015L8.07333 3.97848L8.65083 4.04848C9.00667 4.10681 9.26333 4.30513 9.35667 4.58513C9.44417 4.86513 9.35083 5.17431 9.09417 5.43097L8.61 5.91515L8.76167 6.45765C8.89583 7.03515 8.63333 7.29764 8.51083 7.38514C8.44667 7.43764 8.30667 7.51932 8.1025 7.51932ZM5.60583 4.89432L6.00833 5.2968C6.195 5.48347 6.28833 5.79848 6.23 6.05515L6.11917 6.5218L6.58583 6.24764C6.83667 6.1018 7.175 6.1018 7.42 6.24764L7.88667 6.5218L7.78167 6.05515C7.72333 5.79265 7.81083 5.48347 7.9975 5.2968L8.4 4.89432L7.8925 4.8068C7.6475 4.76597 7.4025 4.58515 7.29167 4.36348L7 3.79181L6.70833 4.37514C6.60333 4.59098 6.35833 4.77765 6.11333 4.81848L5.60583 4.89432Z"/>
</mask>
<path d="M8.1025 7.51932C7.95083 7.51932 7.77 7.47848 7.55417 7.35015L7 7.01764L6.44583 7.34431C5.93833 7.64764 5.60583 7.47264 5.48333 7.38514C5.36083 7.29764 5.09833 7.03515 5.2325 6.45765L5.3725 5.85681L4.90583 5.42514C4.64917 5.16847 4.55583 4.85931 4.64333 4.57931C4.73083 4.29931 4.9875 4.10097 5.34917 4.04264L5.97333 3.93764L6.27083 3.28431C6.44 2.95181 6.7025 2.76514 7 2.76514C7.2975 2.76514 7.56583 2.95765 7.72917 3.29015L8.07333 3.97848L8.65083 4.04848C9.00667 4.10681 9.26333 4.30513 9.35667 4.58513C9.44417 4.86513 9.35083 5.17431 9.09417 5.43097L8.61 5.91515L8.76167 6.45765C8.89583 7.03515 8.63333 7.29764 8.51083 7.38514C8.44667 7.43764 8.30667 7.51932 8.1025 7.51932ZM5.60583 4.89432L6.00833 5.2968C6.195 5.48347 6.28833 5.79848 6.23 6.05515L6.11917 6.5218L6.58583 6.24764C6.83667 6.1018 7.175 6.1018 7.42 6.24764L7.88667 6.5218L7.78167 6.05515C7.72333 5.79265 7.81083 5.48347 7.9975 5.2968L8.4 4.89432L7.8925 4.8068C7.6475 4.76597 7.4025 4.58515 7.29167 4.36348L7 3.79181L6.70833 4.37514C6.60333 4.59098 6.35833 4.77765 6.11333 4.81848L5.60583 4.89432Z" fill="white"/>
<path d="M7.55417 7.35015L7.03966 8.20764L7.04309 8.20968L7.55417 7.35015ZM7 7.01764L7.5145 6.16015L7.00453 5.85416L6.49219 6.15617L7 7.01764ZM6.44583 7.34431L5.93801 6.48282L5.93279 6.48594L6.44583 7.34431ZM5.2325 6.45765L4.25859 6.23072L4.25844 6.23135L5.2325 6.45765ZM5.3725 5.85681L6.34641 6.08374L6.47835 5.51752L6.05155 5.12272L5.3725 5.85681ZM4.90583 5.42514L4.19873 6.13224L4.21249 6.14601L4.22678 6.15923L4.90583 5.42514ZM5.34917 4.04264L5.5084 5.0299L5.51505 5.02878L5.34917 4.04264ZM5.97333 3.93764L6.13922 4.92379L6.66322 4.83564L6.88342 4.35206L5.97333 3.93764ZM6.27083 3.28431L5.37956 2.83085L5.36973 2.85017L5.36075 2.8699L6.27083 3.28431ZM7.72917 3.29015L6.83159 3.73107L6.83474 3.73737L7.72917 3.29015ZM8.07333 3.97848L7.17891 4.4257L7.41933 4.90653L7.95301 4.97121L8.07333 3.97848ZM8.65083 4.04848L8.81261 3.06165L8.79195 3.05826L8.77116 3.05574L8.65083 4.04848ZM9.35667 4.58513L10.3111 4.28686L10.3083 4.27786L10.3054 4.26891L9.35667 4.58513ZM9.09417 5.43097L8.38706 4.72387L8.38705 4.72387L9.09417 5.43097ZM8.61 5.91515L7.90289 5.20805L7.48953 5.62141L7.64693 6.1844L8.61 5.91515ZM8.76167 6.45765L9.73573 6.23135L9.73071 6.20975L9.72474 6.1884L8.76167 6.45765ZM8.51083 7.38514L7.9296 6.57141L7.90295 6.59045L7.8776 6.61119L8.51083 7.38514ZM5.60583 4.89432L5.45804 3.9053L3.49577 4.19852L4.89874 5.60144L5.60583 4.89432ZM6.00833 5.2968L6.71544 4.58969L6.71543 4.58968L6.00833 5.2968ZM6.23 6.05515L7.20298 6.28623L7.20513 6.27677L6.23 6.05515ZM6.11917 6.5218L5.14623 6.29073L4.60455 8.57145L6.62572 7.38402L6.11917 6.5218ZM6.58583 6.24764L6.08321 5.38312L6.07928 5.38543L6.58583 6.24764ZM7.42 6.24764L6.90851 7.10694L6.91345 7.10985L7.42 6.24764ZM7.88667 6.5218L7.38012 7.38402L9.36852 8.5522L8.86228 6.30229L7.88667 6.5218ZM7.78167 6.05515L6.80548 6.27208L6.80606 6.27466L7.78167 6.05515ZM7.9975 5.2968L7.29041 4.58968L7.29039 4.58969L7.9975 5.2968ZM8.4 4.89432L9.10709 5.60144L10.4718 4.23682L8.56993 3.90886L8.4 4.89432ZM7.8925 4.8068L8.06244 3.82133L8.0569 3.82041L7.8925 4.8068ZM7.29167 4.36348L8.18612 3.91625L8.18243 3.90902L7.29167 4.36348ZM7 3.79181L7.89077 3.33734L6.99099 1.57376L6.10557 3.3446L7 3.79181ZM6.70833 4.37514L5.81385 3.9279L5.8091 3.93768L6.70833 4.37514ZM6.11333 4.81848L6.26112 5.8075L6.26944 5.80626L6.27773 5.80488L6.11333 4.81848ZM8.1025 7.51932V6.51932C8.10976 6.51932 8.1164 6.51983 8.12189 6.5206C8.12736 6.52136 8.12992 6.52214 8.12916 6.52192C8.12818 6.52164 8.10728 6.5156 8.06524 6.49061L7.55417 7.35015L7.04309 8.20968C7.39872 8.42114 7.75444 8.51932 8.1025 8.51932V7.51932ZM7.55417 7.35015L8.06867 6.49266L7.5145 6.16015L7 7.01764L6.4855 7.87513L7.03967 8.20764L7.55417 7.35015ZM7 7.01764L6.49219 6.15617L5.93802 6.48284L6.44583 7.34431L6.95365 8.20578L7.50781 7.87911L7 7.01764ZM6.44583 7.34431L5.93279 6.48594C5.88412 6.51503 5.86233 6.51925 5.86683 6.51818C5.87241 6.51685 5.89264 6.51344 5.92325 6.51661C5.98517 6.52303 6.03385 6.54947 6.06457 6.57141L5.48333 7.38514L4.9021 8.19888C5.05532 8.30832 5.33149 8.46601 5.71716 8.50596C6.11571 8.54725 6.53976 8.45317 6.95888 8.20267L6.44583 7.34431ZM5.48333 7.38514L6.06457 6.57141C6.11062 6.6043 6.15424 6.64961 6.17988 6.70905C6.19252 6.73836 6.19503 6.75854 6.19532 6.76265C6.19554 6.76561 6.19318 6.74153 6.20656 6.68394L5.2325 6.45765L4.25844 6.23135C4.14895 6.70266 4.18484 7.13353 4.34346 7.50124C4.49743 7.85818 4.73355 8.07849 4.9021 8.19888L5.48333 7.38514ZM5.2325 6.45765L6.20641 6.68458L6.34641 6.08374L5.3725 5.85681L4.39859 5.62988L4.25859 6.23072L5.2325 6.45765ZM5.3725 5.85681L6.05155 5.12272L5.58489 4.69105L4.90583 5.42514L4.22678 6.15923L4.69345 6.5909L5.3725 5.85681ZM4.90583 5.42514L5.61294 4.71803C5.58258 4.68767 5.59098 4.68338 5.60119 4.71654C5.60636 4.7333 5.61113 4.75736 5.61132 4.78721C5.61151 4.81735 5.60696 4.84831 5.59781 4.87759L4.64333 4.57931L3.68885 4.28104C3.46491 4.99765 3.74549 5.679 4.19873 6.13224L4.90583 5.42514ZM4.64333 4.57931L5.59781 4.87759C5.57613 4.94697 5.53426 4.99673 5.50036 5.02261C5.4705 5.04542 5.46488 5.0369 5.5084 5.02988L5.34917 4.04264L5.18994 3.0554C4.55428 3.15792 3.91683 3.5515 3.68885 4.28104L4.64333 4.57931ZM5.34917 4.04264L5.51505 5.02878L6.13922 4.92379L5.97333 3.93764L5.80745 2.9515L5.18328 3.05649L5.34917 4.04264ZM5.97333 3.93764L6.88342 4.35206L7.18092 3.69873L6.27083 3.28431L5.36075 2.8699L5.06325 3.52323L5.97333 3.93764ZM6.27083 3.28431L7.16211 3.73777C7.1874 3.68807 7.19744 3.6932 7.16718 3.71473C7.1516 3.72582 7.12791 3.73921 7.09645 3.74955C7.06465 3.76 7.03148 3.76514 7 3.76514V2.76514V1.76514C6.22516 1.76514 5.66807 2.26377 5.37956 2.83085L6.27083 3.28431ZM7 2.76514V3.76514C6.96532 3.76514 6.93089 3.75934 6.89948 3.74884C6.86847 3.73848 6.84564 3.72531 6.83095 3.71475C6.80234 3.69417 6.81079 3.68867 6.83161 3.73105L7.72917 3.29015L8.62672 2.84925C8.34374 2.27317 7.7776 1.76514 7 1.76514V2.76514ZM7.72917 3.29015L6.83474 3.73737L7.17891 4.4257L8.07333 3.97848L8.96776 3.53126L8.62359 2.84294L7.72917 3.29015ZM8.07333 3.97848L7.95301 4.97121L8.53051 5.04121L8.65083 4.04848L8.77116 3.05574L8.19366 2.98575L8.07333 3.97848ZM8.65083 4.04848L8.48906 5.0353C8.52757 5.04162 8.52233 5.04911 8.49529 5.02846C8.46502 5.00534 8.4281 4.96169 8.40798 4.90136L9.35667 4.58513L10.3054 4.26891C10.0694 3.56093 9.4489 3.16596 8.81261 3.06165L8.65083 4.04848ZM9.35667 4.58513L8.40219 4.88341C8.39304 4.85413 8.38849 4.82317 8.38868 4.79303C8.38887 4.76318 8.39365 4.73913 8.3988 4.72238C8.40902 4.68922 8.41741 4.69352 8.38706 4.72387L9.09417 5.43097L9.80127 6.13808C10.2545 5.68483 10.5351 5.00346 10.3111 4.28686L9.35667 4.58513ZM9.09417 5.43097L8.38705 4.72387L7.90289 5.20805L8.61 5.91515L9.31712 6.62225L9.80128 6.13807L9.09417 5.43097ZM8.61 5.91515L7.64693 6.1844L7.7986 6.72689L8.76167 6.45765L9.72474 6.1884L9.57307 5.6459L8.61 5.91515ZM8.76167 6.45765L7.78761 6.68394C7.80099 6.74153 7.79863 6.76561 7.79884 6.76265C7.79914 6.75854 7.80165 6.73835 7.81429 6.70905C7.83993 6.64961 7.88355 6.6043 7.9296 6.57141L8.51083 7.38514L9.09207 8.19888C9.26062 8.07849 9.49673 7.85818 9.65071 7.50124C9.80933 7.13353 9.84522 6.70266 9.73573 6.23135L8.76167 6.45765ZM8.51083 7.38514L7.8776 6.61119C7.95529 6.54762 8.03237 6.51932 8.1025 6.51932V7.51932V8.51932C8.58097 8.51932 8.93805 8.32767 9.14407 8.1591L8.51083 7.38514ZM5.60583 4.89432L4.89874 5.60144L5.30124 6.00392L6.00833 5.2968L6.71543 4.58968L6.31293 4.1872L5.60583 4.89432ZM6.00833 5.2968L5.30123 6.00391C5.27863 5.98131 5.26674 5.96296 5.26119 5.95323C5.25551 5.94326 5.25293 5.93616 5.25151 5.93132C5.25009 5.9265 5.24816 5.91825 5.2475 5.90509C5.24685 5.89218 5.2471 5.86772 5.25487 5.83352L6.23 6.05515L7.20513 6.27677C7.34113 5.67838 7.14021 5.01447 6.71544 4.58969L6.00833 5.2968ZM6.23 6.05515L5.25707 5.82407L5.14623 6.29073L6.11917 6.5218L7.0921 6.75288L7.20294 6.28622L6.23 6.05515ZM6.11917 6.5218L6.62572 7.38402L7.09238 7.10985L6.58583 6.24764L6.07928 5.38543L5.61262 5.65959L6.11917 6.5218ZM6.58583 6.24764L7.08845 7.11214C7.04793 7.13571 7.01906 7.13826 7.00511 7.13826C6.99149 7.13826 6.95696 7.13577 6.90852 7.10693L7.42 6.24764L7.93149 5.38834C7.36766 5.05274 6.64105 5.05881 6.08321 5.38313L6.58583 6.24764ZM7.42 6.24764L6.91345 7.10985L7.38012 7.38402L7.88667 6.5218L8.39322 5.65959L7.92655 5.38543L7.42 6.24764ZM7.88667 6.5218L8.86228 6.30229L8.75728 5.83563L7.78167 6.05515L6.80606 6.27466L6.91106 6.74132L7.88667 6.5218ZM7.78167 6.05515L8.75785 5.83821C8.76856 5.88638 8.76197 5.91261 8.75963 5.92086C8.75742 5.92863 8.74747 5.96105 8.70461 6.00391L7.9975 5.2968L7.29039 4.58969C6.855 5.02509 6.67514 5.68555 6.80548 6.27208L7.78167 6.05515ZM7.9975 5.2968L8.70459 6.00392L9.10709 5.60144L8.4 4.89432L7.69291 4.1872L7.29041 4.58968L7.9975 5.2968ZM8.4 4.89432L8.56993 3.90886L8.06243 3.82135L7.8925 4.8068L7.72257 5.79226L8.23007 5.87977L8.4 4.89432ZM7.8925 4.8068L8.0569 3.82041C8.08615 3.82528 8.10533 3.83251 8.11527 3.83691C8.12543 3.8414 8.13161 3.84542 8.13552 3.84831C8.13943 3.85119 8.14518 3.85597 8.1526 3.86451C8.15986 3.87287 8.17263 3.88934 8.18609 3.91627L7.29167 4.36348L6.39724 4.8107C6.65144 5.3191 7.16816 5.69987 7.7281 5.7932L7.8925 4.8068ZM7.29167 4.36348L8.18243 3.90902L7.89077 3.33734L7 3.79181L6.10924 4.24628L6.4009 4.81795L7.29167 4.36348ZM7 3.79181L6.10557 3.3446L5.81391 3.92793L6.70833 4.37514L7.60276 4.82236L7.89443 4.23902L7 3.79181ZM6.70833 4.37514L5.8091 3.93768C5.82438 3.90627 5.83882 3.88763 5.84626 3.87894C5.85401 3.8699 5.85975 3.86513 5.86333 3.86244C5.86693 3.85974 5.87319 3.85553 5.88406 3.85063C5.89465 3.84585 5.91602 3.83757 5.94894 3.83209L6.11333 4.81848L6.27773 5.80488C6.84494 5.71034 7.3622 5.31698 7.60757 4.81261L6.70833 4.37514ZM6.11333 4.81848L5.96554 3.82946L5.45804 3.9053L5.60583 4.89432L5.75362 5.88334L6.26112 5.8075L6.11333 4.81848Z" fill="white" mask="url(#path-5-inside-3_7479_2613)"/>
</svg>
